M48
;DRILL file {KiCad 4.0.6} date 08/29/17 21:17:17
;FORMAT={-:-/ absolute / inch / decimal}
FMAT,2
INCH,TZ
T1C0.016
T2C0.024
T3C0.030
T4C0.031
T5C0.035
T6C0.039
T7C0.043
T8C0.126
%
G90
G05
M72
T1
X4.98Y-3.48
X4.98Y-3.54
X4.98Y-3.6
X4.98Y-3.66
X4.98Y-3.72
X4.98Y-3.78
X4.98Y-4.44
X4.98Y-4.5
X4.98Y-4.56
X4.98Y-4.62
X4.98Y-4.68
X4.98Y-4.74
X5.04Y-3.48
X5.04Y-3.54
X5.04Y-3.6
X5.04Y-3.66
X5.04Y-3.72
X5.04Y-3.78
X5.04Y-4.44
X5.04Y-4.5
X5.04Y-4.56
X5.04Y-4.62
X5.04Y-4.68
X5.04Y-4.74
X5.69Y-4.05
X5.7Y-4.99
X5.72Y-3.84
X5.72Y-4.19
X5.73Y-4.39
X5.74Y-4.79
X5.8Y-3.56
X5.85Y-4.08
X5.99Y-3.21
X5.99Y-3.41
X6.18Y-4.83
X6.18Y-4.88
X6.18Y-4.93
X6.18Y-4.98
X6.18Y-5.03
X6.18Y-5.08
X6.27Y-3.82
X6.52Y-4.52
X6.52Y-4.57
X6.52Y-4.62
X6.52Y-4.67
X6.57Y-4.52
X6.57Y-4.57
X6.57Y-4.62
X6.57Y-4.67
X6.62Y-4.52
X6.67Y-4.52
X6.72Y-4.52
X6.82Y-3.22
X6.88Y-3.39
X7.09Y-4.04
X7.09Y-4.2
X7.11Y-3.29
X7.11Y-3.46
X7.12Y-3.83
X7.13Y-4.4
X7.8Y-3.48
X7.8Y-3.54
X7.8Y-3.6
X7.8Y-3.66
X7.8Y-3.72
X7.8Y-3.78
X7.8Y-4.46
X7.8Y-4.52
X7.8Y-4.58
X7.8Y-4.64
X7.8Y-4.7
X7.8Y-4.76
X7.86Y-3.48
X7.86Y-3.54
X7.86Y-3.6
X7.86Y-3.66
X7.86Y-3.72
X7.86Y-3.78
X7.86Y-4.46
X7.86Y-4.52
X7.86Y-4.58
X7.86Y-4.64
X7.86Y-4.7
X7.86Y-4.76
T2
X6.04Y-3.52
X6.04Y-3.57
X6.04Y-3.62
T4
X6.08Y-3.78
X6.08Y-4.18
X6.08Y-4.27
X6.08Y-4.42
X6.08Y-4.67
X6.08Y-4.82
T5
X6.Y-4.96
X6.1Y-4.96
T6
X6.2Y-3.3
X6.2Y-3.4
X6.2Y-3.5
X6.2Y-3.6
X6.2Y-3.7
X6.2Y-3.8
X6.2Y-3.9
X6.2Y-4.
X6.2Y-4.1
X6.2Y-4.2
X6.2Y-4.3
X6.2Y-4.4
X6.2Y-4.5
X6.2Y-4.6
X6.2Y-4.7
X6.8Y-3.3
X6.8Y-3.4
X6.8Y-3.5
X6.8Y-3.6
X6.8Y-3.7
X6.8Y-3.8
X6.8Y-3.9
X6.8Y-4.
X6.8Y-4.1
X6.8Y-4.2
X6.8Y-4.3
X6.8Y-4.4
X6.8Y-4.5
X6.8Y-4.6
X6.8Y-4.7
T7
X6.3Y-3.9
X6.7Y-3.9
T8
X4.66Y-3.62
X4.66Y-4.6
X8.16Y-3.63
X8.16Y-4.6
T3
X5.8924Y-3.6133G85X5.8924Y-3.6133
G05
X5.8924Y-3.6167G85X5.8924Y-3.6167
G05
X5.8924Y-4.5833G85X5.8924Y-4.5833
G05
X5.8924Y-4.5867G85X5.8924Y-4.5867
G05
X6.9376Y-3.6333G85X6.9376Y-3.6333
G05
X6.9376Y-3.6367G85X6.9376Y-3.6367
G05
X6.9376Y-4.6033G85X6.9376Y-4.6033
G05
X6.9376Y-4.6067G85X6.9376Y-4.6067
G05
T0
M30
