G04 #@! TF.FileFunction,Soldermask,Top*
%FSLAX46Y46*%
G04 Gerber Fmt 4.6, Leading zero omitted, Abs format (unit mm)*
G04 Created by KiCad (PCBNEW 4.0.6) date 08/29/17 21:17:03*
%MOMM*%
%LPD*%
G01*
G04 APERTURE LIST*
%ADD10C,0.100000*%
%ADD11R,1.800000X1.800000*%
%ADD12C,1.800000*%
%ADD13R,2.200000X2.200000*%
%ADD14O,2.200000X2.200000*%
%ADD15C,1.600000*%
%ADD16O,1.600000X1.600000*%
%ADD17O,1.500000X0.900000*%
%ADD18R,1.500000X0.900000*%
%ADD19R,1.700000X1.700000*%
%ADD20C,1.700000*%
%ADD21C,3.200000*%
%ADD22O,2.000000X1.600000*%
G04 APERTURE END LIST*
D10*
D11*
X152400000Y-125984000D03*
D12*
X154940000Y-125984000D03*
D13*
X170180000Y-99060000D03*
D14*
X160020000Y-99060000D03*
D15*
X154432000Y-112268000D03*
D16*
X154432000Y-122428000D03*
D15*
X154432000Y-118618000D03*
D16*
X154432000Y-108458000D03*
D15*
X154432000Y-106172000D03*
D16*
X154432000Y-96012000D03*
D17*
X153416000Y-90678000D03*
X153416000Y-91948000D03*
D18*
X153416000Y-89408000D03*
D19*
X157480000Y-83820000D03*
D20*
X157480000Y-86360000D03*
X157480000Y-88900000D03*
X157480000Y-91440000D03*
X157480000Y-93980000D03*
X157480000Y-96520000D03*
X157480000Y-99060000D03*
X157480000Y-101600000D03*
X157480000Y-104140000D03*
X157480000Y-106680000D03*
X157480000Y-109220000D03*
X157480000Y-111760000D03*
X157480000Y-114300000D03*
X157480000Y-116840000D03*
X157480000Y-119380000D03*
X172720000Y-83820000D03*
X172720000Y-86360000D03*
X172720000Y-88900000D03*
X172720000Y-91440000D03*
X172720000Y-93980000D03*
X172720000Y-96520000D03*
X172720000Y-99060000D03*
X172720000Y-101600000D03*
X172720000Y-104140000D03*
X172720000Y-106680000D03*
X172720000Y-109220000D03*
X172720000Y-111760000D03*
X172720000Y-114300000D03*
X172720000Y-116840000D03*
X172720000Y-119380000D03*
D21*
X118364000Y-91948000D03*
X118364000Y-116840000D03*
X207264000Y-116840000D03*
X207264000Y-92202000D03*
D22*
X176216000Y-82126000D03*
X204216000Y-87206000D03*
X204216000Y-84666000D03*
X204216000Y-82126000D03*
X176216000Y-84666000D03*
X176216000Y-87206000D03*
X176216000Y-89746000D03*
X176216000Y-92286000D03*
X176216000Y-94826000D03*
X176216000Y-97366000D03*
X176216000Y-99906000D03*
X176216000Y-102446000D03*
X149666000Y-126662000D03*
X121666000Y-121582000D03*
X121666000Y-124122000D03*
X121666000Y-126662000D03*
X149666000Y-124122000D03*
X149666000Y-121582000D03*
X149666000Y-119042000D03*
X149666000Y-116502000D03*
X149666000Y-113962000D03*
X149666000Y-111422000D03*
X149666000Y-108882000D03*
X149666000Y-106342000D03*
X176216000Y-106764000D03*
X204216000Y-111844000D03*
X204216000Y-109304000D03*
X204216000Y-106764000D03*
X176216000Y-109304000D03*
X176216000Y-111844000D03*
X176216000Y-114384000D03*
X176216000Y-116924000D03*
X176216000Y-119464000D03*
X176216000Y-122004000D03*
X176216000Y-124544000D03*
X176216000Y-127084000D03*
X176216000Y-117010000D03*
X149666000Y-116416000D03*
X149666000Y-102024000D03*
X121666000Y-96944000D03*
X121666000Y-99484000D03*
X121666000Y-102024000D03*
X149666000Y-99484000D03*
X149666000Y-96944000D03*
X149666000Y-94404000D03*
X149666000Y-91864000D03*
X149666000Y-89324000D03*
X149666000Y-86784000D03*
X149666000Y-84244000D03*
X149666000Y-81704000D03*
X176216000Y-92372000D03*
X149666000Y-91778000D03*
M02*
