G04 #@! TF.FileFunction,Copper,L1,Top,Signal*
%FSLAX46Y46*%
G04 Gerber Fmt 4.6, Leading zero omitted, Abs format (unit mm)*
G04 Created by KiCad (PCBNEW 4.0.6) date 08/29/17 21:17:03*
%MOMM*%
%LPD*%
G01*
G04 APERTURE LIST*
%ADD10C,0.100000*%
%ADD11R,1.800000X1.800000*%
%ADD12C,1.800000*%
%ADD13R,2.200000X2.200000*%
%ADD14O,2.200000X2.200000*%
%ADD15C,1.600000*%
%ADD16O,1.600000X1.600000*%
%ADD17O,1.500000X0.900000*%
%ADD18R,1.500000X0.900000*%
%ADD19R,1.700000X1.700000*%
%ADD20C,1.700000*%
%ADD21O,2.000000X1.600000*%
%ADD22C,0.800000*%
%ADD23C,0.250000*%
%ADD24C,1.000000*%
%ADD25C,0.400000*%
%ADD26C,0.200000*%
%ADD27C,0.254000*%
G04 APERTURE END LIST*
D10*
D11*
X152400000Y-125984000D03*
D12*
X154940000Y-125984000D03*
D13*
X170180000Y-99060000D03*
D14*
X160020000Y-99060000D03*
D15*
X154432000Y-112268000D03*
D16*
X154432000Y-122428000D03*
D15*
X154432000Y-118618000D03*
D16*
X154432000Y-108458000D03*
D15*
X154432000Y-106172000D03*
D16*
X154432000Y-96012000D03*
D17*
X153416000Y-90678000D03*
X153416000Y-91948000D03*
D18*
X153416000Y-89408000D03*
D19*
X157480000Y-83820000D03*
D20*
X157480000Y-86360000D03*
X157480000Y-88900000D03*
X157480000Y-91440000D03*
X157480000Y-93980000D03*
X157480000Y-96520000D03*
X157480000Y-99060000D03*
X157480000Y-101600000D03*
X157480000Y-104140000D03*
X157480000Y-106680000D03*
X157480000Y-109220000D03*
X157480000Y-111760000D03*
X157480000Y-114300000D03*
X157480000Y-116840000D03*
X157480000Y-119380000D03*
X172720000Y-83820000D03*
X172720000Y-86360000D03*
X172720000Y-88900000D03*
X172720000Y-91440000D03*
X172720000Y-93980000D03*
X172720000Y-96520000D03*
X172720000Y-99060000D03*
X172720000Y-101600000D03*
X172720000Y-104140000D03*
X172720000Y-106680000D03*
X172720000Y-109220000D03*
X172720000Y-111760000D03*
X172720000Y-114300000D03*
X172720000Y-116840000D03*
X172720000Y-119380000D03*
D21*
X176216000Y-82126000D03*
X204216000Y-87206000D03*
X204216000Y-84666000D03*
X204216000Y-82126000D03*
X176216000Y-84666000D03*
X176216000Y-87206000D03*
X176216000Y-89746000D03*
X176216000Y-92286000D03*
X176216000Y-94826000D03*
X176216000Y-97366000D03*
X176216000Y-99906000D03*
X176216000Y-102446000D03*
X149666000Y-126662000D03*
X121666000Y-121582000D03*
X121666000Y-124122000D03*
X121666000Y-126662000D03*
X149666000Y-124122000D03*
X149666000Y-121582000D03*
X149666000Y-119042000D03*
X149666000Y-116502000D03*
X149666000Y-113962000D03*
X149666000Y-111422000D03*
X149666000Y-108882000D03*
X149666000Y-106342000D03*
X176216000Y-106764000D03*
X204216000Y-111844000D03*
X204216000Y-109304000D03*
X204216000Y-106764000D03*
X176216000Y-109304000D03*
X176216000Y-111844000D03*
X176216000Y-114384000D03*
X176216000Y-116924000D03*
X176216000Y-119464000D03*
X176216000Y-122004000D03*
X176216000Y-124544000D03*
X176216000Y-127084000D03*
X176216000Y-117010000D03*
X149666000Y-116416000D03*
X149666000Y-102024000D03*
X121666000Y-96944000D03*
X121666000Y-99484000D03*
X121666000Y-102024000D03*
X149666000Y-99484000D03*
X149666000Y-96944000D03*
X149666000Y-94404000D03*
X149666000Y-91864000D03*
X149666000Y-89324000D03*
X149666000Y-86784000D03*
X149666000Y-84244000D03*
X149666000Y-81704000D03*
X176216000Y-92372000D03*
X149666000Y-91778000D03*
D22*
X199644000Y-88392000D03*
X198120000Y-88392000D03*
X198120000Y-89916000D03*
X198120000Y-91440000D03*
X198120000Y-92964000D03*
X198120000Y-94488000D03*
X198120000Y-96012000D03*
X199644000Y-96012000D03*
X199644000Y-94488000D03*
X199644000Y-92964000D03*
X199644000Y-91440000D03*
X199644000Y-89916000D03*
X199644000Y-113284000D03*
X198120000Y-113284000D03*
X198120000Y-114808000D03*
X198120000Y-116332000D03*
X198120000Y-117856000D03*
X198120000Y-119380000D03*
X198120000Y-120904000D03*
X199644000Y-120904000D03*
X199644000Y-119380000D03*
X199644000Y-117856000D03*
X199644000Y-116332000D03*
X199644000Y-114808000D03*
X126492000Y-88392000D03*
X128016000Y-88392000D03*
X128016000Y-89916000D03*
X128016000Y-91440000D03*
X128016000Y-92964000D03*
X128016000Y-94488000D03*
X128016000Y-96012000D03*
X126492000Y-96012000D03*
X126492000Y-94488000D03*
X126492000Y-92964000D03*
X126492000Y-91440000D03*
X126492000Y-89916000D03*
X126492000Y-112776000D03*
X128016000Y-112776000D03*
X128016000Y-114300000D03*
X128016000Y-115824000D03*
X128016000Y-117348000D03*
X128016000Y-118872000D03*
X128016000Y-120396000D03*
X126492000Y-120396000D03*
X126492000Y-118872000D03*
X126492000Y-117348000D03*
X126492000Y-115824000D03*
X126492000Y-114300000D03*
X156972000Y-122682000D03*
X156972000Y-129032000D03*
X156972000Y-127762000D03*
X156972000Y-126492000D03*
X156972000Y-125222000D03*
X156972000Y-123952000D03*
X170688000Y-114808000D03*
X165608000Y-114808000D03*
X165608000Y-116078000D03*
X165608000Y-117348000D03*
X165608000Y-118618000D03*
X166878000Y-118618000D03*
X166878000Y-117348000D03*
X166878000Y-116078000D03*
X166878000Y-114808000D03*
X168148000Y-114808000D03*
X169418000Y-114808000D03*
X144526000Y-102870000D03*
X145288000Y-106426000D03*
X152146000Y-81534000D03*
X173228000Y-81788000D03*
X180594000Y-83566000D03*
X180086000Y-102616000D03*
X180086000Y-106680000D03*
X144780000Y-126746000D03*
X181102000Y-111760000D03*
X174752000Y-86106000D03*
X152146000Y-86614000D03*
X180594000Y-87884000D03*
X145288000Y-97536000D03*
X180848000Y-97282000D03*
X145796000Y-121666000D03*
X145542000Y-111506000D03*
X159258000Y-97028000D03*
X147320000Y-90424000D03*
X148590000Y-103632000D03*
D23*
X147888000Y-124376000D02*
X147888000Y-124146000D01*
X198120000Y-88392000D02*
X198120000Y-89916000D01*
X198120000Y-92964000D02*
X198120000Y-91440000D01*
X198120000Y-96012000D02*
X198120000Y-94488000D01*
X199644000Y-94488000D02*
X199644000Y-96012000D01*
X199644000Y-91440000D02*
X199644000Y-92964000D01*
X199644000Y-89916000D02*
X199644000Y-88392000D01*
X198120000Y-113284000D02*
X198120000Y-114808000D01*
X198120000Y-117856000D02*
X198120000Y-116332000D01*
X198120000Y-120904000D02*
X198120000Y-119380000D01*
X199644000Y-119380000D02*
X199644000Y-120904000D01*
X199644000Y-116332000D02*
X199644000Y-117856000D01*
X199644000Y-114808000D02*
X199644000Y-113284000D01*
X128016000Y-88392000D02*
X128016000Y-89916000D01*
X128016000Y-92964000D02*
X128016000Y-91440000D01*
X128016000Y-96012000D02*
X128016000Y-94488000D01*
X126492000Y-94488000D02*
X126492000Y-96012000D01*
X126492000Y-91440000D02*
X126492000Y-92964000D01*
X126492000Y-89916000D02*
X126492000Y-88392000D01*
X128016000Y-112776000D02*
X128016000Y-114300000D01*
X128016000Y-117348000D02*
X128016000Y-115824000D01*
X128016000Y-120396000D02*
X128016000Y-118872000D01*
X126492000Y-118872000D02*
X126492000Y-120396000D01*
X126492000Y-115824000D02*
X126492000Y-117348000D01*
X126492000Y-114300000D02*
X126492000Y-112776000D01*
X156972000Y-129032000D02*
X156972000Y-127762000D01*
X156972000Y-125222000D02*
X156972000Y-126492000D01*
X156972000Y-123952000D02*
X156972000Y-122682000D01*
X165608000Y-117348000D02*
X165608000Y-116078000D01*
X166878000Y-118618000D02*
X165608000Y-118618000D01*
X166878000Y-116078000D02*
X166878000Y-117348000D01*
X168148000Y-114808000D02*
X166878000Y-114808000D01*
X169418000Y-114808000D02*
X170688000Y-114808000D01*
D24*
X154432000Y-96012000D02*
X152568000Y-96012000D01*
X152568000Y-96012000D02*
X150960000Y-94404000D01*
X149666000Y-94404000D02*
X150960000Y-94404000D01*
X150960000Y-94404000D02*
X153416000Y-91948000D01*
X172720000Y-86360000D02*
X172720000Y-86614000D01*
X172720000Y-86614000D02*
X175852000Y-89746000D01*
X175852000Y-89746000D02*
X176216000Y-89746000D01*
X146685000Y-80391000D02*
X147320000Y-79756000D01*
X146685000Y-80391000D02*
X142578000Y-84498000D01*
X142578000Y-92372000D02*
X142578000Y-84498000D01*
X154178000Y-80264000D02*
X172212000Y-80264000D01*
X153670000Y-79756000D02*
X154178000Y-80264000D01*
X147320000Y-79756000D02*
X153670000Y-79756000D01*
X149412000Y-116756000D02*
X144442000Y-116756000D01*
X140970000Y-113284000D02*
X144442000Y-116756000D01*
X140970000Y-93980000D02*
X140970000Y-113284000D01*
X142578000Y-92372000D02*
X140970000Y-93980000D01*
X149666000Y-91864000D02*
X143086000Y-91864000D01*
X143086000Y-91864000D02*
X142578000Y-92372000D01*
X176216000Y-116924000D02*
X181526000Y-116924000D01*
X183896000Y-92286000D02*
X176216000Y-92286000D01*
X184658000Y-93048000D02*
X183896000Y-92286000D01*
X184658000Y-113792000D02*
X184658000Y-93048000D01*
X181526000Y-116924000D02*
X184658000Y-113792000D01*
X183642000Y-92032000D02*
X183642000Y-83566000D01*
X183642000Y-83566000D02*
X180340000Y-80264000D01*
X180340000Y-80264000D02*
X172212000Y-80264000D01*
X165862000Y-93218000D02*
X160020000Y-99060000D01*
X172085000Y-80391000D02*
X165862000Y-86614000D01*
X172212000Y-80264000D02*
X172085000Y-80391000D01*
X165862000Y-86614000D02*
X165862000Y-93218000D01*
D25*
X144526000Y-102870000D02*
X144653000Y-102997000D01*
X149666000Y-126662000D02*
X144864000Y-126662000D01*
X144864000Y-126662000D02*
X144780000Y-126746000D01*
X149666000Y-102024000D02*
X145626000Y-102024000D01*
X145626000Y-102024000D02*
X144653000Y-102997000D01*
X144653000Y-102997000D02*
X144526000Y-103124000D01*
X144526000Y-103124000D02*
X144526000Y-105664000D01*
X144526000Y-105664000D02*
X145288000Y-106426000D01*
X157480000Y-96520000D02*
X161798000Y-92202000D01*
X155702000Y-85090000D02*
X152146000Y-81534000D01*
X159258000Y-85090000D02*
X155702000Y-85090000D01*
X161798000Y-87630000D02*
X159258000Y-85090000D01*
X161798000Y-92202000D02*
X161798000Y-87630000D01*
X173228000Y-81788000D02*
X175878000Y-81788000D01*
X176216000Y-82126000D02*
X175878000Y-81788000D01*
X176216000Y-82126000D02*
X179154000Y-82126000D01*
X179154000Y-82126000D02*
X180594000Y-83566000D01*
X181356000Y-105410000D02*
X180086000Y-106680000D01*
X181356000Y-103886000D02*
X181356000Y-105410000D01*
X180086000Y-102616000D02*
X181356000Y-103886000D01*
X180002000Y-106764000D02*
X176216000Y-106764000D01*
X180086000Y-106680000D02*
X180002000Y-106764000D01*
X175514000Y-81788000D02*
X175598000Y-81872000D01*
X144950000Y-126916000D02*
X144780000Y-126746000D01*
D23*
X157480000Y-116840000D02*
X153924000Y-116840000D01*
X152146000Y-121642000D02*
X149666000Y-124122000D01*
X152146000Y-118618000D02*
X152146000Y-121642000D01*
X153924000Y-116840000D02*
X152146000Y-118618000D01*
D25*
X181018000Y-111844000D02*
X176216000Y-111844000D01*
X181102000Y-111760000D02*
X181018000Y-111844000D01*
X149666000Y-121582000D02*
X145880000Y-121582000D01*
X145880000Y-121582000D02*
X145796000Y-121666000D01*
X149666000Y-96944000D02*
X145880000Y-96944000D01*
X145880000Y-96944000D02*
X145288000Y-97536000D01*
X176216000Y-87206000D02*
X175852000Y-87206000D01*
X175852000Y-87206000D02*
X174752000Y-86106000D01*
X157480000Y-93980000D02*
X160274000Y-91186000D01*
X153162000Y-87630000D02*
X152146000Y-86614000D01*
X158242000Y-87630000D02*
X153162000Y-87630000D01*
X160274000Y-89662000D02*
X158242000Y-87630000D01*
X160274000Y-91186000D02*
X160274000Y-89662000D01*
X176216000Y-87206000D02*
X179916000Y-87206000D01*
X179916000Y-87206000D02*
X180594000Y-87884000D01*
X145288000Y-97536000D02*
X145372000Y-97452000D01*
X178248000Y-111844000D02*
X181102000Y-111844000D01*
X181102000Y-111844000D02*
X181272000Y-111844000D01*
X182880000Y-99314000D02*
X180848000Y-97282000D01*
X182880000Y-110236000D02*
X182880000Y-99314000D01*
X181272000Y-111844000D02*
X182880000Y-110236000D01*
X145966000Y-121836000D02*
X145796000Y-121666000D01*
X143002000Y-108966000D02*
X145542000Y-111506000D01*
X143002000Y-99822000D02*
X143002000Y-108966000D01*
X145372000Y-97452000D02*
X143002000Y-99822000D01*
D23*
X149666000Y-113962000D02*
X154602000Y-113962000D01*
X154856000Y-114216000D02*
X156210000Y-115570000D01*
X156210000Y-115570000D02*
X158496000Y-115570000D01*
X158496000Y-115570000D02*
X162306000Y-111760000D01*
X162306000Y-111760000D02*
X172720000Y-111760000D01*
X154602000Y-113962000D02*
X154856000Y-114216000D01*
X172720000Y-109220000D02*
X174244000Y-110744000D01*
X174244000Y-117492000D02*
X176216000Y-119464000D01*
X174244000Y-110744000D02*
X174244000Y-117492000D01*
X157480000Y-114300000D02*
X163830000Y-107950000D01*
X174862000Y-107950000D02*
X176216000Y-109304000D01*
X163830000Y-107950000D02*
X174862000Y-107950000D01*
D24*
X170180000Y-99060000D02*
X170180000Y-92964000D01*
X171704000Y-91440000D02*
X172720000Y-91440000D01*
X170180000Y-92964000D02*
X171704000Y-91440000D01*
D26*
X159258000Y-97028000D02*
X158496000Y-97790000D01*
X158496000Y-97790000D02*
X156972000Y-97790000D01*
X156972000Y-97790000D02*
X155956000Y-98806000D01*
X155956000Y-98806000D02*
X155956000Y-104648000D01*
X155956000Y-104648000D02*
X156718000Y-105410000D01*
X156718000Y-105410000D02*
X158242000Y-105410000D01*
X158242000Y-105410000D02*
X158750000Y-105918000D01*
X158750000Y-105918000D02*
X158750000Y-107442000D01*
X158750000Y-107442000D02*
X158242000Y-107950000D01*
X158242000Y-107950000D02*
X154940000Y-107950000D01*
X154940000Y-107950000D02*
X154432000Y-108458000D01*
X157480000Y-106680000D02*
X156972000Y-106680000D01*
X156972000Y-106680000D02*
X154940000Y-104648000D01*
X154940000Y-104648000D02*
X154940000Y-101346000D01*
X154940000Y-101346000D02*
X153078000Y-99484000D01*
X153078000Y-99484000D02*
X149666000Y-99484000D01*
X157480000Y-104140000D02*
X161798000Y-104140000D01*
X171958000Y-85090000D02*
X175792000Y-85090000D01*
X170688000Y-86360000D02*
X171958000Y-85090000D01*
X170688000Y-89408000D02*
X170688000Y-86360000D01*
X168402000Y-91694000D02*
X170688000Y-89408000D01*
X168402000Y-97536000D02*
X168402000Y-91694000D01*
X161798000Y-104140000D02*
X168402000Y-97536000D01*
X175792000Y-85090000D02*
X176216000Y-84666000D01*
D23*
X172720000Y-99060000D02*
X174244000Y-97536000D01*
X174244000Y-96266000D02*
X175684000Y-94826000D01*
X174244000Y-97536000D02*
X174244000Y-96266000D01*
X175684000Y-94826000D02*
X176216000Y-94826000D01*
X172720000Y-101600000D02*
X167894000Y-101600000D01*
X148420000Y-89324000D02*
X149666000Y-89324000D01*
X147320000Y-90424000D02*
X148420000Y-89324000D01*
X150368000Y-103632000D02*
X148590000Y-103632000D01*
X152146000Y-105410000D02*
X150368000Y-103632000D01*
X152146000Y-108712000D02*
X152146000Y-105410000D01*
X153924000Y-110490000D02*
X152146000Y-108712000D01*
X159004000Y-110490000D02*
X153924000Y-110490000D01*
X167894000Y-101600000D02*
X159004000Y-110490000D01*
D27*
G36*
X208984741Y-78308602D02*
X209582193Y-78707807D01*
X209981398Y-79305257D01*
X210135000Y-80077467D01*
X210135000Y-81788000D01*
X205801839Y-81788000D01*
X205807904Y-81776961D01*
X205797442Y-81719270D01*
X205536637Y-81221576D01*
X205105226Y-80861572D01*
X204568886Y-80694066D01*
X204343000Y-80846529D01*
X204343000Y-81999000D01*
X204363000Y-81999000D01*
X204363000Y-82253000D01*
X204343000Y-82253000D01*
X204343000Y-82273000D01*
X204089000Y-82273000D01*
X204089000Y-82253000D01*
X202746085Y-82253000D01*
X202624096Y-82475039D01*
X202634558Y-82532730D01*
X202895363Y-83030424D01*
X203326774Y-83390428D01*
X203349209Y-83397435D01*
X202969270Y-83651302D01*
X202658201Y-84116849D01*
X202548968Y-84666000D01*
X202658201Y-85215151D01*
X202969270Y-85680698D01*
X203349209Y-85934565D01*
X203326774Y-85941572D01*
X202895363Y-86301576D01*
X202634558Y-86799270D01*
X202624096Y-86856961D01*
X202746085Y-87079000D01*
X204089000Y-87079000D01*
X204089000Y-87059000D01*
X204343000Y-87059000D01*
X204343000Y-87079000D01*
X204363000Y-87079000D01*
X204363000Y-87333000D01*
X204343000Y-87333000D01*
X204343000Y-88485471D01*
X204568886Y-88637934D01*
X205105226Y-88470428D01*
X205536637Y-88110424D01*
X205723583Y-87753675D01*
X205740000Y-87757000D01*
X210135000Y-87757000D01*
X210135000Y-97028000D01*
X205740000Y-97028000D01*
X205692211Y-97037334D01*
X205650197Y-97065197D01*
X203745197Y-98970197D01*
X203718006Y-99010590D01*
X203708000Y-99060000D01*
X203708000Y-100965000D01*
X203717334Y-101012789D01*
X203745197Y-101054803D01*
X205650197Y-102959803D01*
X205690590Y-102986994D01*
X205740000Y-102997000D01*
X210135000Y-102997000D01*
X210135000Y-106553000D01*
X205740000Y-106553000D01*
X205731111Y-106554736D01*
X205807904Y-106414961D01*
X205797442Y-106357270D01*
X205536637Y-105859576D01*
X205105226Y-105499572D01*
X204568886Y-105332066D01*
X204343000Y-105484529D01*
X204343000Y-106637000D01*
X204363000Y-106637000D01*
X204363000Y-106891000D01*
X204343000Y-106891000D01*
X204343000Y-106911000D01*
X204089000Y-106911000D01*
X204089000Y-106891000D01*
X202746085Y-106891000D01*
X202624096Y-107113039D01*
X202634558Y-107170730D01*
X202895363Y-107668424D01*
X203326774Y-108028428D01*
X203349209Y-108035435D01*
X202969270Y-108289302D01*
X202658201Y-108754849D01*
X202548968Y-109304000D01*
X202658201Y-109853151D01*
X202969270Y-110318698D01*
X203349209Y-110572565D01*
X203326774Y-110579572D01*
X202895363Y-110939576D01*
X202634558Y-111437270D01*
X202624096Y-111494961D01*
X202746085Y-111717000D01*
X204089000Y-111717000D01*
X204089000Y-111697000D01*
X204343000Y-111697000D01*
X204343000Y-111717000D01*
X204363000Y-111717000D01*
X204363000Y-111971000D01*
X204343000Y-111971000D01*
X204343000Y-113123471D01*
X204568886Y-113275934D01*
X205105226Y-113108428D01*
X205536637Y-112748424D01*
X205797442Y-112250730D01*
X205807904Y-112193039D01*
X205685916Y-111971002D01*
X205851000Y-111971002D01*
X205851000Y-111887000D01*
X210135000Y-111887000D01*
X210135000Y-121793000D01*
X205740000Y-121793000D01*
X205692211Y-121802334D01*
X205650197Y-121830197D01*
X203745197Y-123735197D01*
X203718006Y-123775590D01*
X203708000Y-123825000D01*
X203708000Y-125730000D01*
X203716685Y-125776159D01*
X203743965Y-125818553D01*
X203785590Y-125846994D01*
X203835000Y-125857000D01*
X204417394Y-125857000D01*
X205650197Y-127089803D01*
X205690590Y-127116994D01*
X205740000Y-127127000D01*
X210135000Y-127127000D01*
X210135000Y-128202533D01*
X209981398Y-128974743D01*
X209582193Y-129572193D01*
X208984741Y-129971398D01*
X208212533Y-130125000D01*
X172770000Y-130125000D01*
X172770000Y-127433039D01*
X174624096Y-127433039D01*
X174634558Y-127490730D01*
X174895363Y-127988424D01*
X175326774Y-128348428D01*
X175863114Y-128515934D01*
X176089000Y-128363471D01*
X176089000Y-127211000D01*
X176343000Y-127211000D01*
X176343000Y-128363471D01*
X176568886Y-128515934D01*
X177105226Y-128348428D01*
X177536637Y-127988424D01*
X177797442Y-127490730D01*
X177807904Y-127433039D01*
X177685915Y-127211000D01*
X176343000Y-127211000D01*
X176089000Y-127211000D01*
X174746085Y-127211000D01*
X174624096Y-127433039D01*
X172770000Y-127433039D01*
X172770000Y-125730000D01*
X172717857Y-125467862D01*
X172569368Y-125245632D01*
X172347138Y-125097143D01*
X172085000Y-125045000D01*
X158242000Y-125045000D01*
X158007114Y-125091722D01*
X158007179Y-125017029D01*
X157849942Y-124636485D01*
X157800712Y-124587169D01*
X157848919Y-124539046D01*
X158006820Y-124158777D01*
X158007179Y-123747029D01*
X157849942Y-123366485D01*
X157800712Y-123317169D01*
X157848919Y-123269046D01*
X158006820Y-122888777D01*
X158007179Y-122477029D01*
X157849942Y-122096485D01*
X157559046Y-121805081D01*
X157178777Y-121647180D01*
X156767029Y-121646821D01*
X156386485Y-121804058D01*
X156095081Y-122094954D01*
X155937180Y-122475223D01*
X155936821Y-122886971D01*
X156094058Y-123267515D01*
X156143288Y-123316831D01*
X156095081Y-123364954D01*
X155937180Y-123745223D01*
X155936821Y-124156971D01*
X156094058Y-124537515D01*
X156143288Y-124586831D01*
X156095081Y-124634954D01*
X155997301Y-124870434D01*
X155810643Y-124683449D01*
X155246670Y-124449267D01*
X154636009Y-124448735D01*
X154071629Y-124681932D01*
X153894159Y-124859092D01*
X153838327Y-124724301D01*
X153659698Y-124545673D01*
X153426309Y-124449000D01*
X152685750Y-124449000D01*
X152527000Y-124607750D01*
X152527000Y-125857000D01*
X152547000Y-125857000D01*
X152547000Y-126111000D01*
X152527000Y-126111000D01*
X152527000Y-127360250D01*
X152685750Y-127519000D01*
X153426309Y-127519000D01*
X153659698Y-127422327D01*
X153838327Y-127243699D01*
X153894119Y-127109006D01*
X154069357Y-127284551D01*
X154633330Y-127518733D01*
X155243991Y-127519265D01*
X155808371Y-127286068D01*
X156071640Y-127023259D01*
X156094058Y-127077515D01*
X156143288Y-127126831D01*
X156095081Y-127174954D01*
X155937180Y-127555223D01*
X155936821Y-127966971D01*
X156094058Y-128347515D01*
X156143288Y-128396831D01*
X156095081Y-128444954D01*
X155937180Y-128825223D01*
X155936821Y-129236971D01*
X156094058Y-129617515D01*
X156384954Y-129908919D01*
X156765223Y-130066820D01*
X157176971Y-130067179D01*
X157557000Y-129910155D01*
X157557000Y-130125000D01*
X117542467Y-130125000D01*
X116770257Y-129971398D01*
X116172807Y-129572193D01*
X115773602Y-128974741D01*
X115620000Y-128202533D01*
X115620000Y-127127000D01*
X120015000Y-127127000D01*
X120062789Y-127117666D01*
X120097974Y-127094332D01*
X120345363Y-127566424D01*
X120776774Y-127926428D01*
X121313114Y-128093934D01*
X121539000Y-127941471D01*
X121539000Y-126789000D01*
X121793000Y-126789000D01*
X121793000Y-127941471D01*
X122018886Y-128093934D01*
X122555226Y-127926428D01*
X122986637Y-127566424D01*
X123247442Y-127068730D01*
X123257904Y-127011039D01*
X123135915Y-126789000D01*
X121793000Y-126789000D01*
X121539000Y-126789000D01*
X121519000Y-126789000D01*
X121519000Y-126535000D01*
X121539000Y-126535000D01*
X121539000Y-126515000D01*
X121793000Y-126515000D01*
X121793000Y-126535000D01*
X123135915Y-126535000D01*
X123257904Y-126312961D01*
X123247442Y-126255270D01*
X122986637Y-125757576D01*
X122555226Y-125397572D01*
X122532791Y-125390565D01*
X122912730Y-125136698D01*
X123223799Y-124671151D01*
X123333032Y-124122000D01*
X123223799Y-123572849D01*
X122912730Y-123107302D01*
X122532791Y-122853435D01*
X122555226Y-122846428D01*
X122986637Y-122486424D01*
X123247442Y-121988730D01*
X123257904Y-121931039D01*
X123135915Y-121709000D01*
X121793000Y-121709000D01*
X121793000Y-121729000D01*
X121539000Y-121729000D01*
X121539000Y-121709000D01*
X121519000Y-121709000D01*
X121519000Y-121455000D01*
X121539000Y-121455000D01*
X121539000Y-120302529D01*
X121793000Y-120302529D01*
X121793000Y-121455000D01*
X123135915Y-121455000D01*
X123257904Y-121232961D01*
X123247442Y-121175270D01*
X122986637Y-120677576D01*
X122555226Y-120317572D01*
X122018886Y-120150066D01*
X121793000Y-120302529D01*
X121539000Y-120302529D01*
X121313114Y-120150066D01*
X120776774Y-120317572D01*
X120345363Y-120677576D01*
X120084558Y-121175270D01*
X120083540Y-121180884D01*
X120064410Y-121168006D01*
X120015000Y-121158000D01*
X115620000Y-121158000D01*
X115620000Y-117282619D01*
X116128613Y-117282619D01*
X116468155Y-118104372D01*
X117096321Y-118733636D01*
X117917481Y-119074611D01*
X118806619Y-119075387D01*
X119628372Y-118735845D01*
X120257636Y-118107679D01*
X120598611Y-117286519D01*
X120599387Y-116397381D01*
X120259845Y-115575628D01*
X119631679Y-114946364D01*
X118810519Y-114605389D01*
X117921381Y-114604613D01*
X117099628Y-114944155D01*
X116470364Y-115572321D01*
X116129389Y-116393481D01*
X116128613Y-117282619D01*
X115620000Y-117282619D01*
X115620000Y-112980971D01*
X125456821Y-112980971D01*
X125614058Y-113361515D01*
X125732000Y-113479663D01*
X125732000Y-113596239D01*
X125615081Y-113712954D01*
X125457180Y-114093223D01*
X125456821Y-114504971D01*
X125614058Y-114885515D01*
X125790288Y-115062053D01*
X125615081Y-115236954D01*
X125457180Y-115617223D01*
X125456821Y-116028971D01*
X125614058Y-116409515D01*
X125732000Y-116527663D01*
X125732000Y-116644239D01*
X125615081Y-116760954D01*
X125457180Y-117141223D01*
X125456821Y-117552971D01*
X125614058Y-117933515D01*
X125790288Y-118110053D01*
X125615081Y-118284954D01*
X125457180Y-118665223D01*
X125456821Y-119076971D01*
X125614058Y-119457515D01*
X125732000Y-119575663D01*
X125732000Y-119692239D01*
X125615081Y-119808954D01*
X125457180Y-120189223D01*
X125456821Y-120600971D01*
X125614058Y-120981515D01*
X125904954Y-121272919D01*
X126285223Y-121430820D01*
X126696971Y-121431179D01*
X127077515Y-121273942D01*
X127254053Y-121097712D01*
X127428954Y-121272919D01*
X127809223Y-121430820D01*
X128220971Y-121431179D01*
X128601515Y-121273942D01*
X128892919Y-120983046D01*
X129050820Y-120602777D01*
X129051179Y-120191029D01*
X128893942Y-119810485D01*
X128776000Y-119692337D01*
X128776000Y-119575761D01*
X128892919Y-119459046D01*
X129050820Y-119078777D01*
X129051179Y-118667029D01*
X128893942Y-118286485D01*
X128717712Y-118109947D01*
X128892919Y-117935046D01*
X129050820Y-117554777D01*
X129051179Y-117143029D01*
X128893942Y-116762485D01*
X128776000Y-116644337D01*
X128776000Y-116527761D01*
X128892919Y-116411046D01*
X129050820Y-116030777D01*
X129051179Y-115619029D01*
X128893942Y-115238485D01*
X128717712Y-115061947D01*
X128892919Y-114887046D01*
X129050820Y-114506777D01*
X129051179Y-114095029D01*
X128893942Y-113714485D01*
X128776000Y-113596337D01*
X128776000Y-113479761D01*
X128892919Y-113363046D01*
X129050820Y-112982777D01*
X129051179Y-112571029D01*
X128893942Y-112190485D01*
X128603046Y-111899081D01*
X128222777Y-111741180D01*
X127811029Y-111740821D01*
X127430485Y-111898058D01*
X127253947Y-112074288D01*
X127079046Y-111899081D01*
X126698777Y-111741180D01*
X126287029Y-111740821D01*
X125906485Y-111898058D01*
X125615081Y-112188954D01*
X125457180Y-112569223D01*
X125456821Y-112980971D01*
X115620000Y-112980971D01*
X115620000Y-111887000D01*
X120015000Y-111887000D01*
X120062789Y-111877666D01*
X120104803Y-111849803D01*
X122009803Y-109944803D01*
X122036994Y-109904410D01*
X122047000Y-109855000D01*
X122047000Y-107950000D01*
X122037666Y-107902211D01*
X122009803Y-107860197D01*
X120104803Y-105955197D01*
X120064410Y-105928006D01*
X120015000Y-105918000D01*
X115620000Y-105918000D01*
X115620000Y-102362000D01*
X120015000Y-102362000D01*
X120062789Y-102352666D01*
X120098186Y-102329191D01*
X120074096Y-102373039D01*
X120084558Y-102430730D01*
X120345363Y-102928424D01*
X120776774Y-103288428D01*
X121313114Y-103455934D01*
X121539000Y-103303471D01*
X121539000Y-102151000D01*
X121793000Y-102151000D01*
X121793000Y-103303471D01*
X122018886Y-103455934D01*
X122555226Y-103288428D01*
X122986637Y-102928424D01*
X123247442Y-102430730D01*
X123257904Y-102373039D01*
X123135915Y-102151000D01*
X121793000Y-102151000D01*
X121539000Y-102151000D01*
X121519000Y-102151000D01*
X121519000Y-101897000D01*
X121539000Y-101897000D01*
X121539000Y-101877000D01*
X121793000Y-101877000D01*
X121793000Y-101897000D01*
X123135915Y-101897000D01*
X123257904Y-101674961D01*
X123247442Y-101617270D01*
X122986637Y-101119576D01*
X122555226Y-100759572D01*
X122532791Y-100752565D01*
X122912730Y-100498698D01*
X123223799Y-100033151D01*
X123333032Y-99484000D01*
X123223799Y-98934849D01*
X122912730Y-98469302D01*
X122532791Y-98215435D01*
X122555226Y-98208428D01*
X122986637Y-97848424D01*
X123247442Y-97350730D01*
X123257904Y-97293039D01*
X123135915Y-97071000D01*
X121793000Y-97071000D01*
X121793000Y-97091000D01*
X121539000Y-97091000D01*
X121539000Y-97071000D01*
X121519000Y-97071000D01*
X121519000Y-96817000D01*
X121539000Y-96817000D01*
X121539000Y-95664529D01*
X121793000Y-95664529D01*
X121793000Y-96817000D01*
X123135915Y-96817000D01*
X123257904Y-96594961D01*
X123247442Y-96537270D01*
X122986637Y-96039576D01*
X122555226Y-95679572D01*
X122018886Y-95512066D01*
X121793000Y-95664529D01*
X121539000Y-95664529D01*
X121313114Y-95512066D01*
X120776774Y-95679572D01*
X120345363Y-96039576D01*
X120128335Y-96453729D01*
X120104803Y-96430197D01*
X120064410Y-96403006D01*
X120015000Y-96393000D01*
X115620000Y-96393000D01*
X115620000Y-92390619D01*
X116128613Y-92390619D01*
X116468155Y-93212372D01*
X117096321Y-93841636D01*
X117917481Y-94182611D01*
X118806619Y-94183387D01*
X119628372Y-93843845D01*
X120257636Y-93215679D01*
X120598611Y-92394519D01*
X120599387Y-91505381D01*
X120259845Y-90683628D01*
X119631679Y-90054364D01*
X118810519Y-89713389D01*
X117921381Y-89712613D01*
X117099628Y-90052155D01*
X116470364Y-90680321D01*
X116129389Y-91501481D01*
X116128613Y-92390619D01*
X115620000Y-92390619D01*
X115620000Y-88596971D01*
X125456821Y-88596971D01*
X125614058Y-88977515D01*
X125732000Y-89095663D01*
X125732000Y-89212239D01*
X125615081Y-89328954D01*
X125457180Y-89709223D01*
X125456821Y-90120971D01*
X125614058Y-90501515D01*
X125790288Y-90678053D01*
X125615081Y-90852954D01*
X125457180Y-91233223D01*
X125456821Y-91644971D01*
X125614058Y-92025515D01*
X125732000Y-92143663D01*
X125732000Y-92260239D01*
X125615081Y-92376954D01*
X125457180Y-92757223D01*
X125456821Y-93168971D01*
X125614058Y-93549515D01*
X125790288Y-93726053D01*
X125615081Y-93900954D01*
X125457180Y-94281223D01*
X125456821Y-94692971D01*
X125614058Y-95073515D01*
X125732000Y-95191663D01*
X125732000Y-95308239D01*
X125615081Y-95424954D01*
X125457180Y-95805223D01*
X125456821Y-96216971D01*
X125614058Y-96597515D01*
X125904954Y-96888919D01*
X126285223Y-97046820D01*
X126696971Y-97047179D01*
X127077515Y-96889942D01*
X127254053Y-96713712D01*
X127428954Y-96888919D01*
X127809223Y-97046820D01*
X128220971Y-97047179D01*
X128601515Y-96889942D01*
X128892919Y-96599046D01*
X129050820Y-96218777D01*
X129051179Y-95807029D01*
X128893942Y-95426485D01*
X128776000Y-95308337D01*
X128776000Y-95191761D01*
X128892919Y-95075046D01*
X129050820Y-94694777D01*
X129051179Y-94283029D01*
X128925971Y-93980000D01*
X139835000Y-93980000D01*
X139835000Y-113284000D01*
X139921397Y-113718346D01*
X140022405Y-113869515D01*
X140167434Y-114086566D01*
X143639433Y-117558566D01*
X143913613Y-117741767D01*
X144007654Y-117804603D01*
X144442000Y-117891000D01*
X148640847Y-117891000D01*
X148345363Y-118137576D01*
X148084558Y-118635270D01*
X148074096Y-118692961D01*
X148196085Y-118915000D01*
X149539000Y-118915000D01*
X149539000Y-118895000D01*
X149793000Y-118895000D01*
X149793000Y-118915000D01*
X151135915Y-118915000D01*
X151257904Y-118692961D01*
X151247442Y-118635270D01*
X150986637Y-118137576D01*
X150555226Y-117777572D01*
X150532791Y-117770565D01*
X150912730Y-117516698D01*
X151223799Y-117051151D01*
X151333032Y-116502000D01*
X151324479Y-116459000D01*
X151333032Y-116416000D01*
X151223799Y-115866849D01*
X150912730Y-115401302D01*
X150594998Y-115189000D01*
X150912730Y-114976698D01*
X151082914Y-114722000D01*
X154287198Y-114722000D01*
X155645198Y-116080000D01*
X153924000Y-116080000D01*
X153633161Y-116137852D01*
X153386599Y-116302599D01*
X151608599Y-118080599D01*
X151443852Y-118327161D01*
X151386000Y-118618000D01*
X151386000Y-121327198D01*
X151299546Y-121413652D01*
X151223799Y-121032849D01*
X150912730Y-120567302D01*
X150532791Y-120313435D01*
X150555226Y-120306428D01*
X150986637Y-119946424D01*
X151247442Y-119448730D01*
X151257904Y-119391039D01*
X151135915Y-119169000D01*
X149793000Y-119169000D01*
X149793000Y-119189000D01*
X149539000Y-119189000D01*
X149539000Y-119169000D01*
X148196085Y-119169000D01*
X148074096Y-119391039D01*
X148084558Y-119448730D01*
X148345363Y-119946424D01*
X148776774Y-120306428D01*
X148799209Y-120313435D01*
X148419270Y-120567302D01*
X148299199Y-120747000D01*
X146281703Y-120747000D01*
X146002777Y-120631180D01*
X145591029Y-120630821D01*
X145210485Y-120788058D01*
X144919081Y-121078954D01*
X144761180Y-121459223D01*
X144760821Y-121870971D01*
X144918058Y-122251515D01*
X145208954Y-122542919D01*
X145589223Y-122700820D01*
X146000971Y-122701179D01*
X146174277Y-122629571D01*
X146285540Y-122607439D01*
X146379039Y-122544965D01*
X146381515Y-122543942D01*
X146383427Y-122542033D01*
X146556434Y-122426434D01*
X146562738Y-122417000D01*
X148299199Y-122417000D01*
X148419270Y-122596698D01*
X148801356Y-122852000D01*
X148419270Y-123107302D01*
X148189593Y-123451038D01*
X148178839Y-123443852D01*
X147888000Y-123386000D01*
X147597161Y-123443852D01*
X147350599Y-123608599D01*
X147185852Y-123855161D01*
X147128000Y-124146000D01*
X147128000Y-124376000D01*
X147185852Y-124666839D01*
X147350599Y-124913401D01*
X147597161Y-125078148D01*
X147888000Y-125136000D01*
X148178839Y-125078148D01*
X148318012Y-124985156D01*
X148419270Y-125136698D01*
X148801356Y-125392000D01*
X148419270Y-125647302D01*
X148299199Y-125827000D01*
X145265703Y-125827000D01*
X144986777Y-125711180D01*
X144575029Y-125710821D01*
X144194485Y-125868058D01*
X143903081Y-126158954D01*
X143745180Y-126539223D01*
X143744821Y-126950971D01*
X143902058Y-127331515D01*
X144192954Y-127622919D01*
X144573223Y-127780820D01*
X144984971Y-127781179D01*
X145158277Y-127709571D01*
X145269540Y-127687439D01*
X145363039Y-127624965D01*
X145365515Y-127623942D01*
X145367427Y-127622033D01*
X145540434Y-127506434D01*
X145546738Y-127497000D01*
X148299199Y-127497000D01*
X148419270Y-127676698D01*
X148884817Y-127987767D01*
X149433968Y-128097000D01*
X149898032Y-128097000D01*
X150447183Y-127987767D01*
X150912730Y-127676698D01*
X151105769Y-127387795D01*
X151140302Y-127422327D01*
X151373691Y-127519000D01*
X152114250Y-127519000D01*
X152273000Y-127360250D01*
X152273000Y-126111000D01*
X152253000Y-126111000D01*
X152253000Y-125857000D01*
X152273000Y-125857000D01*
X152273000Y-124607750D01*
X152114250Y-124449000D01*
X151373691Y-124449000D01*
X151258496Y-124496715D01*
X151333032Y-124122000D01*
X151234775Y-123628027D01*
X152462915Y-122399887D01*
X152997000Y-122399887D01*
X152997000Y-122456113D01*
X153106233Y-123005264D01*
X153417302Y-123470811D01*
X153882849Y-123781880D01*
X154432000Y-123891113D01*
X154981151Y-123781880D01*
X155446698Y-123470811D01*
X155757767Y-123005264D01*
X155867000Y-122456113D01*
X155867000Y-122399887D01*
X155757767Y-121850736D01*
X155446698Y-121385189D01*
X154981151Y-121074120D01*
X154432000Y-120964887D01*
X153882849Y-121074120D01*
X153417302Y-121385189D01*
X153106233Y-121850736D01*
X152997000Y-122399887D01*
X152462915Y-122399887D01*
X152683401Y-122179401D01*
X152848148Y-121932839D01*
X152906000Y-121642000D01*
X152906000Y-118932802D01*
X152996805Y-118841997D01*
X152996752Y-118902187D01*
X153214757Y-119429800D01*
X153618077Y-119833824D01*
X154145309Y-120052750D01*
X154716187Y-120053248D01*
X155243800Y-119835243D01*
X155647824Y-119431923D01*
X155866750Y-118904691D01*
X155867248Y-118333813D01*
X155649243Y-117806200D01*
X155443402Y-117600000D01*
X156187253Y-117600000D01*
X156220344Y-117680086D01*
X156637717Y-118098188D01*
X156665557Y-118109748D01*
X156639914Y-118120344D01*
X156221812Y-118537717D01*
X155995258Y-119083319D01*
X155994743Y-119674089D01*
X156220344Y-120220086D01*
X156637717Y-120638188D01*
X157183319Y-120864742D01*
X157774089Y-120865257D01*
X158320086Y-120639656D01*
X158738188Y-120222283D01*
X158964742Y-119676681D01*
X158965257Y-119085911D01*
X158739656Y-118539914D01*
X158322283Y-118121812D01*
X158294443Y-118110252D01*
X158320086Y-118099656D01*
X158738188Y-117682283D01*
X158964742Y-117136681D01*
X158965257Y-116545911D01*
X158838012Y-116237955D01*
X159033401Y-116107401D01*
X162620802Y-112520000D01*
X171427253Y-112520000D01*
X171460344Y-112600086D01*
X171877717Y-113018188D01*
X171905557Y-113029748D01*
X171879914Y-113040344D01*
X171461812Y-113457717D01*
X171266694Y-113927613D01*
X170894777Y-113773180D01*
X170483029Y-113772821D01*
X170102485Y-113930058D01*
X170053169Y-113979288D01*
X170005046Y-113931081D01*
X169624777Y-113773180D01*
X169213029Y-113772821D01*
X168832485Y-113930058D01*
X168783169Y-113979288D01*
X168735046Y-113931081D01*
X168354777Y-113773180D01*
X167943029Y-113772821D01*
X167562485Y-113930058D01*
X167513169Y-113979288D01*
X167465046Y-113931081D01*
X167084777Y-113773180D01*
X166673029Y-113772821D01*
X166292485Y-113930058D01*
X166243169Y-113979288D01*
X166195046Y-113931081D01*
X165814777Y-113773180D01*
X165403029Y-113772821D01*
X165022485Y-113930058D01*
X164731081Y-114220954D01*
X164573180Y-114601223D01*
X164572821Y-115012971D01*
X164730058Y-115393515D01*
X164779288Y-115442831D01*
X164731081Y-115490954D01*
X164573180Y-115871223D01*
X164572821Y-116282971D01*
X164730058Y-116663515D01*
X164779288Y-116712831D01*
X164731081Y-116760954D01*
X164573180Y-117141223D01*
X164572821Y-117552971D01*
X164730058Y-117933515D01*
X164779288Y-117982831D01*
X164731081Y-118030954D01*
X164573180Y-118411223D01*
X164572821Y-118822971D01*
X164730058Y-119203515D01*
X165020954Y-119494919D01*
X165401223Y-119652820D01*
X165812971Y-119653179D01*
X166193515Y-119495942D01*
X166242831Y-119446712D01*
X166290954Y-119494919D01*
X166671223Y-119652820D01*
X167082971Y-119653179D01*
X167463515Y-119495942D01*
X167754919Y-119205046D01*
X167912820Y-118824777D01*
X167913179Y-118413029D01*
X167755942Y-118032485D01*
X167706712Y-117983169D01*
X167754919Y-117935046D01*
X167912820Y-117554777D01*
X167913179Y-117143029D01*
X167755942Y-116762485D01*
X167706712Y-116713169D01*
X167754919Y-116665046D01*
X167912820Y-116284777D01*
X167913179Y-115873029D01*
X167892304Y-115822507D01*
X167941223Y-115842820D01*
X168352971Y-115843179D01*
X168733515Y-115685942D01*
X168782831Y-115636712D01*
X168830954Y-115684919D01*
X169211223Y-115842820D01*
X169622971Y-115843179D01*
X170003515Y-115685942D01*
X170052831Y-115636712D01*
X170100954Y-115684919D01*
X170481223Y-115842820D01*
X170892971Y-115843179D01*
X171273515Y-115685942D01*
X171564919Y-115395046D01*
X171608966Y-115288968D01*
X171877717Y-115558188D01*
X171905557Y-115569748D01*
X171879914Y-115580344D01*
X171461812Y-115997717D01*
X171235258Y-116543319D01*
X171234743Y-117134089D01*
X171460344Y-117680086D01*
X171877717Y-118098188D01*
X171905557Y-118109748D01*
X171879914Y-118120344D01*
X171461812Y-118537717D01*
X171235258Y-119083319D01*
X171234743Y-119674089D01*
X171460344Y-120220086D01*
X171877717Y-120638188D01*
X172423319Y-120864742D01*
X173014089Y-120865257D01*
X173560086Y-120639656D01*
X173978188Y-120222283D01*
X174204742Y-119676681D01*
X174205257Y-119085911D01*
X173979656Y-118539914D01*
X173562283Y-118121812D01*
X173534443Y-118110252D01*
X173560086Y-118099656D01*
X173676135Y-117983809D01*
X173706599Y-118029401D01*
X174647225Y-118970027D01*
X174548968Y-119464000D01*
X174658201Y-120013151D01*
X174969270Y-120478698D01*
X175351356Y-120734000D01*
X174969270Y-120989302D01*
X174658201Y-121454849D01*
X174548968Y-122004000D01*
X174658201Y-122553151D01*
X174969270Y-123018698D01*
X175351356Y-123274000D01*
X174969270Y-123529302D01*
X174658201Y-123994849D01*
X174548968Y-124544000D01*
X174658201Y-125093151D01*
X174969270Y-125558698D01*
X175349209Y-125812565D01*
X175326774Y-125819572D01*
X174895363Y-126179576D01*
X174634558Y-126677270D01*
X174624096Y-126734961D01*
X174746085Y-126957000D01*
X176089000Y-126957000D01*
X176089000Y-126937000D01*
X176343000Y-126937000D01*
X176343000Y-126957000D01*
X177685915Y-126957000D01*
X177807904Y-126734961D01*
X177797442Y-126677270D01*
X177536637Y-126179576D01*
X177105226Y-125819572D01*
X177082791Y-125812565D01*
X177462730Y-125558698D01*
X177773799Y-125093151D01*
X177883032Y-124544000D01*
X177773799Y-123994849D01*
X177462730Y-123529302D01*
X177080644Y-123274000D01*
X177462730Y-123018698D01*
X177773799Y-122553151D01*
X177883032Y-122004000D01*
X177773799Y-121454849D01*
X177462730Y-120989302D01*
X177080644Y-120734000D01*
X177462730Y-120478698D01*
X177773799Y-120013151D01*
X177883032Y-119464000D01*
X177773799Y-118914849D01*
X177462730Y-118449302D01*
X177144998Y-118237000D01*
X177411394Y-118059000D01*
X181526000Y-118059000D01*
X181960346Y-117972603D01*
X182328566Y-117726566D01*
X185460566Y-114594566D01*
X185519225Y-114506777D01*
X185706603Y-114226346D01*
X185793000Y-113792000D01*
X185793000Y-113488971D01*
X197084821Y-113488971D01*
X197242058Y-113869515D01*
X197360000Y-113987663D01*
X197360000Y-114104239D01*
X197243081Y-114220954D01*
X197085180Y-114601223D01*
X197084821Y-115012971D01*
X197242058Y-115393515D01*
X197418288Y-115570053D01*
X197243081Y-115744954D01*
X197085180Y-116125223D01*
X197084821Y-116536971D01*
X197242058Y-116917515D01*
X197360000Y-117035663D01*
X197360000Y-117152239D01*
X197243081Y-117268954D01*
X197085180Y-117649223D01*
X197084821Y-118060971D01*
X197242058Y-118441515D01*
X197418288Y-118618053D01*
X197243081Y-118792954D01*
X197085180Y-119173223D01*
X197084821Y-119584971D01*
X197242058Y-119965515D01*
X197360000Y-120083663D01*
X197360000Y-120200239D01*
X197243081Y-120316954D01*
X197085180Y-120697223D01*
X197084821Y-121108971D01*
X197242058Y-121489515D01*
X197532954Y-121780919D01*
X197913223Y-121938820D01*
X198324971Y-121939179D01*
X198705515Y-121781942D01*
X198882053Y-121605712D01*
X199056954Y-121780919D01*
X199437223Y-121938820D01*
X199848971Y-121939179D01*
X200229515Y-121781942D01*
X200520919Y-121491046D01*
X200678820Y-121110777D01*
X200679179Y-120699029D01*
X200521942Y-120318485D01*
X200404000Y-120200337D01*
X200404000Y-120083761D01*
X200520919Y-119967046D01*
X200678820Y-119586777D01*
X200679179Y-119175029D01*
X200521942Y-118794485D01*
X200345712Y-118617947D01*
X200520919Y-118443046D01*
X200678820Y-118062777D01*
X200679179Y-117651029D01*
X200526956Y-117282619D01*
X205028613Y-117282619D01*
X205368155Y-118104372D01*
X205996321Y-118733636D01*
X206817481Y-119074611D01*
X207706619Y-119075387D01*
X208528372Y-118735845D01*
X209157636Y-118107679D01*
X209498611Y-117286519D01*
X209499387Y-116397381D01*
X209159845Y-115575628D01*
X208531679Y-114946364D01*
X207710519Y-114605389D01*
X206821381Y-114604613D01*
X205999628Y-114944155D01*
X205370364Y-115572321D01*
X205029389Y-116393481D01*
X205028613Y-117282619D01*
X200526956Y-117282619D01*
X200521942Y-117270485D01*
X200404000Y-117152337D01*
X200404000Y-117035761D01*
X200520919Y-116919046D01*
X200678820Y-116538777D01*
X200679179Y-116127029D01*
X200521942Y-115746485D01*
X200345712Y-115569947D01*
X200520919Y-115395046D01*
X200678820Y-115014777D01*
X200679179Y-114603029D01*
X200521942Y-114222485D01*
X200404000Y-114104337D01*
X200404000Y-113987761D01*
X200520919Y-113871046D01*
X200678820Y-113490777D01*
X200679179Y-113079029D01*
X200521942Y-112698485D01*
X200231046Y-112407081D01*
X199850777Y-112249180D01*
X199439029Y-112248821D01*
X199058485Y-112406058D01*
X198881947Y-112582288D01*
X198707046Y-112407081D01*
X198326777Y-112249180D01*
X197915029Y-112248821D01*
X197534485Y-112406058D01*
X197243081Y-112696954D01*
X197085180Y-113077223D01*
X197084821Y-113488971D01*
X185793000Y-113488971D01*
X185793000Y-112193039D01*
X202624096Y-112193039D01*
X202634558Y-112250730D01*
X202895363Y-112748424D01*
X203326774Y-113108428D01*
X203863114Y-113275934D01*
X204089000Y-113123471D01*
X204089000Y-111971000D01*
X202746085Y-111971000D01*
X202624096Y-112193039D01*
X185793000Y-112193039D01*
X185793000Y-106414961D01*
X202624096Y-106414961D01*
X202746085Y-106637000D01*
X204089000Y-106637000D01*
X204089000Y-105484529D01*
X203863114Y-105332066D01*
X203326774Y-105499572D01*
X202895363Y-105859576D01*
X202634558Y-106357270D01*
X202624096Y-106414961D01*
X185793000Y-106414961D01*
X185793000Y-93048000D01*
X185706603Y-92613654D01*
X185460566Y-92245434D01*
X184777000Y-91561868D01*
X184777000Y-88596971D01*
X197084821Y-88596971D01*
X197242058Y-88977515D01*
X197360000Y-89095663D01*
X197360000Y-89212239D01*
X197243081Y-89328954D01*
X197085180Y-89709223D01*
X197084821Y-90120971D01*
X197242058Y-90501515D01*
X197418288Y-90678053D01*
X197243081Y-90852954D01*
X197085180Y-91233223D01*
X197084821Y-91644971D01*
X197242058Y-92025515D01*
X197360000Y-92143663D01*
X197360000Y-92260239D01*
X197243081Y-92376954D01*
X197085180Y-92757223D01*
X197084821Y-93168971D01*
X197242058Y-93549515D01*
X197418288Y-93726053D01*
X197243081Y-93900954D01*
X197085180Y-94281223D01*
X197084821Y-94692971D01*
X197242058Y-95073515D01*
X197360000Y-95191663D01*
X197360000Y-95308239D01*
X197243081Y-95424954D01*
X197085180Y-95805223D01*
X197084821Y-96216971D01*
X197242058Y-96597515D01*
X197532954Y-96888919D01*
X197913223Y-97046820D01*
X198324971Y-97047179D01*
X198705515Y-96889942D01*
X198882053Y-96713712D01*
X199056954Y-96888919D01*
X199437223Y-97046820D01*
X199848971Y-97047179D01*
X200229515Y-96889942D01*
X200520919Y-96599046D01*
X200678820Y-96218777D01*
X200679179Y-95807029D01*
X200521942Y-95426485D01*
X200404000Y-95308337D01*
X200404000Y-95191761D01*
X200520919Y-95075046D01*
X200678820Y-94694777D01*
X200679179Y-94283029D01*
X200521942Y-93902485D01*
X200345712Y-93725947D01*
X200520919Y-93551046D01*
X200678820Y-93170777D01*
X200679179Y-92759029D01*
X200631906Y-92644619D01*
X205028613Y-92644619D01*
X205368155Y-93466372D01*
X205996321Y-94095636D01*
X206817481Y-94436611D01*
X207706619Y-94437387D01*
X208528372Y-94097845D01*
X209157636Y-93469679D01*
X209498611Y-92648519D01*
X209499387Y-91759381D01*
X209159845Y-90937628D01*
X208531679Y-90308364D01*
X207710519Y-89967389D01*
X206821381Y-89966613D01*
X205999628Y-90306155D01*
X205370364Y-90934321D01*
X205029389Y-91755481D01*
X205028613Y-92644619D01*
X200631906Y-92644619D01*
X200521942Y-92378485D01*
X200404000Y-92260337D01*
X200404000Y-92143761D01*
X200520919Y-92027046D01*
X200678820Y-91646777D01*
X200679179Y-91235029D01*
X200521942Y-90854485D01*
X200345712Y-90677947D01*
X200520919Y-90503046D01*
X200678820Y-90122777D01*
X200679179Y-89711029D01*
X200521942Y-89330485D01*
X200404000Y-89212337D01*
X200404000Y-89095761D01*
X200520919Y-88979046D01*
X200678820Y-88598777D01*
X200679179Y-88187029D01*
X200521942Y-87806485D01*
X200270935Y-87555039D01*
X202624096Y-87555039D01*
X202634558Y-87612730D01*
X202895363Y-88110424D01*
X203326774Y-88470428D01*
X203863114Y-88637934D01*
X204089000Y-88485471D01*
X204089000Y-87333000D01*
X202746085Y-87333000D01*
X202624096Y-87555039D01*
X200270935Y-87555039D01*
X200231046Y-87515081D01*
X199850777Y-87357180D01*
X199439029Y-87356821D01*
X199058485Y-87514058D01*
X198881947Y-87690288D01*
X198707046Y-87515081D01*
X198326777Y-87357180D01*
X197915029Y-87356821D01*
X197534485Y-87514058D01*
X197243081Y-87804954D01*
X197085180Y-88185223D01*
X197084821Y-88596971D01*
X184777000Y-88596971D01*
X184777000Y-83566000D01*
X184690603Y-83131654D01*
X184444566Y-82763434D01*
X183458093Y-81776961D01*
X202624096Y-81776961D01*
X202746085Y-81999000D01*
X204089000Y-81999000D01*
X204089000Y-80846529D01*
X203863114Y-80694066D01*
X203326774Y-80861572D01*
X202895363Y-81221576D01*
X202634558Y-81719270D01*
X202624096Y-81776961D01*
X183458093Y-81776961D01*
X181142565Y-79461433D01*
X180774346Y-79215397D01*
X180340000Y-79129000D01*
X154648132Y-79129000D01*
X154472566Y-78953434D01*
X154371325Y-78885787D01*
X154104346Y-78707397D01*
X153670000Y-78621000D01*
X147320000Y-78621000D01*
X146885655Y-78707396D01*
X146517434Y-78953434D01*
X141775434Y-83695434D01*
X141529397Y-84063654D01*
X141443000Y-84498000D01*
X141443000Y-91901868D01*
X140167434Y-93177434D01*
X139921397Y-93545654D01*
X139835000Y-93980000D01*
X128925971Y-93980000D01*
X128893942Y-93902485D01*
X128717712Y-93725947D01*
X128892919Y-93551046D01*
X129050820Y-93170777D01*
X129051179Y-92759029D01*
X128893942Y-92378485D01*
X128776000Y-92260337D01*
X128776000Y-92143761D01*
X128892919Y-92027046D01*
X129050820Y-91646777D01*
X129051179Y-91235029D01*
X128893942Y-90854485D01*
X128717712Y-90677947D01*
X128892919Y-90503046D01*
X129050820Y-90122777D01*
X129051179Y-89711029D01*
X128893942Y-89330485D01*
X128776000Y-89212337D01*
X128776000Y-89095761D01*
X128892919Y-88979046D01*
X129050820Y-88598777D01*
X129051179Y-88187029D01*
X128893942Y-87806485D01*
X128603046Y-87515081D01*
X128222777Y-87357180D01*
X127811029Y-87356821D01*
X127430485Y-87514058D01*
X127253947Y-87690288D01*
X127079046Y-87515081D01*
X126698777Y-87357180D01*
X126287029Y-87356821D01*
X125906485Y-87514058D01*
X125615081Y-87804954D01*
X125457180Y-88185223D01*
X125456821Y-88596971D01*
X115620000Y-88596971D01*
X115620000Y-87122000D01*
X120015000Y-87122000D01*
X120062789Y-87112666D01*
X120104803Y-87084803D01*
X122009803Y-85179803D01*
X122036994Y-85139410D01*
X122047000Y-85090000D01*
X122047000Y-83185000D01*
X122037666Y-83137211D01*
X122009803Y-83095197D01*
X120104803Y-81190197D01*
X120064410Y-81163006D01*
X120015000Y-81153000D01*
X115620000Y-81153000D01*
X115620000Y-80077467D01*
X115773602Y-79305259D01*
X116172807Y-78707807D01*
X116770257Y-78308602D01*
X117542467Y-78155000D01*
X208212533Y-78155000D01*
X208984741Y-78308602D01*
X208984741Y-78308602D01*
G37*
X208984741Y-78308602D02*
X209582193Y-78707807D01*
X209981398Y-79305257D01*
X210135000Y-80077467D01*
X210135000Y-81788000D01*
X205801839Y-81788000D01*
X205807904Y-81776961D01*
X205797442Y-81719270D01*
X205536637Y-81221576D01*
X205105226Y-80861572D01*
X204568886Y-80694066D01*
X204343000Y-80846529D01*
X204343000Y-81999000D01*
X204363000Y-81999000D01*
X204363000Y-82253000D01*
X204343000Y-82253000D01*
X204343000Y-82273000D01*
X204089000Y-82273000D01*
X204089000Y-82253000D01*
X202746085Y-82253000D01*
X202624096Y-82475039D01*
X202634558Y-82532730D01*
X202895363Y-83030424D01*
X203326774Y-83390428D01*
X203349209Y-83397435D01*
X202969270Y-83651302D01*
X202658201Y-84116849D01*
X202548968Y-84666000D01*
X202658201Y-85215151D01*
X202969270Y-85680698D01*
X203349209Y-85934565D01*
X203326774Y-85941572D01*
X202895363Y-86301576D01*
X202634558Y-86799270D01*
X202624096Y-86856961D01*
X202746085Y-87079000D01*
X204089000Y-87079000D01*
X204089000Y-87059000D01*
X204343000Y-87059000D01*
X204343000Y-87079000D01*
X204363000Y-87079000D01*
X204363000Y-87333000D01*
X204343000Y-87333000D01*
X204343000Y-88485471D01*
X204568886Y-88637934D01*
X205105226Y-88470428D01*
X205536637Y-88110424D01*
X205723583Y-87753675D01*
X205740000Y-87757000D01*
X210135000Y-87757000D01*
X210135000Y-97028000D01*
X205740000Y-97028000D01*
X205692211Y-97037334D01*
X205650197Y-97065197D01*
X203745197Y-98970197D01*
X203718006Y-99010590D01*
X203708000Y-99060000D01*
X203708000Y-100965000D01*
X203717334Y-101012789D01*
X203745197Y-101054803D01*
X205650197Y-102959803D01*
X205690590Y-102986994D01*
X205740000Y-102997000D01*
X210135000Y-102997000D01*
X210135000Y-106553000D01*
X205740000Y-106553000D01*
X205731111Y-106554736D01*
X205807904Y-106414961D01*
X205797442Y-106357270D01*
X205536637Y-105859576D01*
X205105226Y-105499572D01*
X204568886Y-105332066D01*
X204343000Y-105484529D01*
X204343000Y-106637000D01*
X204363000Y-106637000D01*
X204363000Y-106891000D01*
X204343000Y-106891000D01*
X204343000Y-106911000D01*
X204089000Y-106911000D01*
X204089000Y-106891000D01*
X202746085Y-106891000D01*
X202624096Y-107113039D01*
X202634558Y-107170730D01*
X202895363Y-107668424D01*
X203326774Y-108028428D01*
X203349209Y-108035435D01*
X202969270Y-108289302D01*
X202658201Y-108754849D01*
X202548968Y-109304000D01*
X202658201Y-109853151D01*
X202969270Y-110318698D01*
X203349209Y-110572565D01*
X203326774Y-110579572D01*
X202895363Y-110939576D01*
X202634558Y-111437270D01*
X202624096Y-111494961D01*
X202746085Y-111717000D01*
X204089000Y-111717000D01*
X204089000Y-111697000D01*
X204343000Y-111697000D01*
X204343000Y-111717000D01*
X204363000Y-111717000D01*
X204363000Y-111971000D01*
X204343000Y-111971000D01*
X204343000Y-113123471D01*
X204568886Y-113275934D01*
X205105226Y-113108428D01*
X205536637Y-112748424D01*
X205797442Y-112250730D01*
X205807904Y-112193039D01*
X205685916Y-111971002D01*
X205851000Y-111971002D01*
X205851000Y-111887000D01*
X210135000Y-111887000D01*
X210135000Y-121793000D01*
X205740000Y-121793000D01*
X205692211Y-121802334D01*
X205650197Y-121830197D01*
X203745197Y-123735197D01*
X203718006Y-123775590D01*
X203708000Y-123825000D01*
X203708000Y-125730000D01*
X203716685Y-125776159D01*
X203743965Y-125818553D01*
X203785590Y-125846994D01*
X203835000Y-125857000D01*
X204417394Y-125857000D01*
X205650197Y-127089803D01*
X205690590Y-127116994D01*
X205740000Y-127127000D01*
X210135000Y-127127000D01*
X210135000Y-128202533D01*
X209981398Y-128974743D01*
X209582193Y-129572193D01*
X208984741Y-129971398D01*
X208212533Y-130125000D01*
X172770000Y-130125000D01*
X172770000Y-127433039D01*
X174624096Y-127433039D01*
X174634558Y-127490730D01*
X174895363Y-127988424D01*
X175326774Y-128348428D01*
X175863114Y-128515934D01*
X176089000Y-128363471D01*
X176089000Y-127211000D01*
X176343000Y-127211000D01*
X176343000Y-128363471D01*
X176568886Y-128515934D01*
X177105226Y-128348428D01*
X177536637Y-127988424D01*
X177797442Y-127490730D01*
X177807904Y-127433039D01*
X177685915Y-127211000D01*
X176343000Y-127211000D01*
X176089000Y-127211000D01*
X174746085Y-127211000D01*
X174624096Y-127433039D01*
X172770000Y-127433039D01*
X172770000Y-125730000D01*
X172717857Y-125467862D01*
X172569368Y-125245632D01*
X172347138Y-125097143D01*
X172085000Y-125045000D01*
X158242000Y-125045000D01*
X158007114Y-125091722D01*
X158007179Y-125017029D01*
X157849942Y-124636485D01*
X157800712Y-124587169D01*
X157848919Y-124539046D01*
X158006820Y-124158777D01*
X158007179Y-123747029D01*
X157849942Y-123366485D01*
X157800712Y-123317169D01*
X157848919Y-123269046D01*
X158006820Y-122888777D01*
X158007179Y-122477029D01*
X157849942Y-122096485D01*
X157559046Y-121805081D01*
X157178777Y-121647180D01*
X156767029Y-121646821D01*
X156386485Y-121804058D01*
X156095081Y-122094954D01*
X155937180Y-122475223D01*
X155936821Y-122886971D01*
X156094058Y-123267515D01*
X156143288Y-123316831D01*
X156095081Y-123364954D01*
X155937180Y-123745223D01*
X155936821Y-124156971D01*
X156094058Y-124537515D01*
X156143288Y-124586831D01*
X156095081Y-124634954D01*
X155997301Y-124870434D01*
X155810643Y-124683449D01*
X155246670Y-124449267D01*
X154636009Y-124448735D01*
X154071629Y-124681932D01*
X153894159Y-124859092D01*
X153838327Y-124724301D01*
X153659698Y-124545673D01*
X153426309Y-124449000D01*
X152685750Y-124449000D01*
X152527000Y-124607750D01*
X152527000Y-125857000D01*
X152547000Y-125857000D01*
X152547000Y-126111000D01*
X152527000Y-126111000D01*
X152527000Y-127360250D01*
X152685750Y-127519000D01*
X153426309Y-127519000D01*
X153659698Y-127422327D01*
X153838327Y-127243699D01*
X153894119Y-127109006D01*
X154069357Y-127284551D01*
X154633330Y-127518733D01*
X155243991Y-127519265D01*
X155808371Y-127286068D01*
X156071640Y-127023259D01*
X156094058Y-127077515D01*
X156143288Y-127126831D01*
X156095081Y-127174954D01*
X155937180Y-127555223D01*
X155936821Y-127966971D01*
X156094058Y-128347515D01*
X156143288Y-128396831D01*
X156095081Y-128444954D01*
X155937180Y-128825223D01*
X155936821Y-129236971D01*
X156094058Y-129617515D01*
X156384954Y-129908919D01*
X156765223Y-130066820D01*
X157176971Y-130067179D01*
X157557000Y-129910155D01*
X157557000Y-130125000D01*
X117542467Y-130125000D01*
X116770257Y-129971398D01*
X116172807Y-129572193D01*
X115773602Y-128974741D01*
X115620000Y-128202533D01*
X115620000Y-127127000D01*
X120015000Y-127127000D01*
X120062789Y-127117666D01*
X120097974Y-127094332D01*
X120345363Y-127566424D01*
X120776774Y-127926428D01*
X121313114Y-128093934D01*
X121539000Y-127941471D01*
X121539000Y-126789000D01*
X121793000Y-126789000D01*
X121793000Y-127941471D01*
X122018886Y-128093934D01*
X122555226Y-127926428D01*
X122986637Y-127566424D01*
X123247442Y-127068730D01*
X123257904Y-127011039D01*
X123135915Y-126789000D01*
X121793000Y-126789000D01*
X121539000Y-126789000D01*
X121519000Y-126789000D01*
X121519000Y-126535000D01*
X121539000Y-126535000D01*
X121539000Y-126515000D01*
X121793000Y-126515000D01*
X121793000Y-126535000D01*
X123135915Y-126535000D01*
X123257904Y-126312961D01*
X123247442Y-126255270D01*
X122986637Y-125757576D01*
X122555226Y-125397572D01*
X122532791Y-125390565D01*
X122912730Y-125136698D01*
X123223799Y-124671151D01*
X123333032Y-124122000D01*
X123223799Y-123572849D01*
X122912730Y-123107302D01*
X122532791Y-122853435D01*
X122555226Y-122846428D01*
X122986637Y-122486424D01*
X123247442Y-121988730D01*
X123257904Y-121931039D01*
X123135915Y-121709000D01*
X121793000Y-121709000D01*
X121793000Y-121729000D01*
X121539000Y-121729000D01*
X121539000Y-121709000D01*
X121519000Y-121709000D01*
X121519000Y-121455000D01*
X121539000Y-121455000D01*
X121539000Y-120302529D01*
X121793000Y-120302529D01*
X121793000Y-121455000D01*
X123135915Y-121455000D01*
X123257904Y-121232961D01*
X123247442Y-121175270D01*
X122986637Y-120677576D01*
X122555226Y-120317572D01*
X122018886Y-120150066D01*
X121793000Y-120302529D01*
X121539000Y-120302529D01*
X121313114Y-120150066D01*
X120776774Y-120317572D01*
X120345363Y-120677576D01*
X120084558Y-121175270D01*
X120083540Y-121180884D01*
X120064410Y-121168006D01*
X120015000Y-121158000D01*
X115620000Y-121158000D01*
X115620000Y-117282619D01*
X116128613Y-117282619D01*
X116468155Y-118104372D01*
X117096321Y-118733636D01*
X117917481Y-119074611D01*
X118806619Y-119075387D01*
X119628372Y-118735845D01*
X120257636Y-118107679D01*
X120598611Y-117286519D01*
X120599387Y-116397381D01*
X120259845Y-115575628D01*
X119631679Y-114946364D01*
X118810519Y-114605389D01*
X117921381Y-114604613D01*
X117099628Y-114944155D01*
X116470364Y-115572321D01*
X116129389Y-116393481D01*
X116128613Y-117282619D01*
X115620000Y-117282619D01*
X115620000Y-112980971D01*
X125456821Y-112980971D01*
X125614058Y-113361515D01*
X125732000Y-113479663D01*
X125732000Y-113596239D01*
X125615081Y-113712954D01*
X125457180Y-114093223D01*
X125456821Y-114504971D01*
X125614058Y-114885515D01*
X125790288Y-115062053D01*
X125615081Y-115236954D01*
X125457180Y-115617223D01*
X125456821Y-116028971D01*
X125614058Y-116409515D01*
X125732000Y-116527663D01*
X125732000Y-116644239D01*
X125615081Y-116760954D01*
X125457180Y-117141223D01*
X125456821Y-117552971D01*
X125614058Y-117933515D01*
X125790288Y-118110053D01*
X125615081Y-118284954D01*
X125457180Y-118665223D01*
X125456821Y-119076971D01*
X125614058Y-119457515D01*
X125732000Y-119575663D01*
X125732000Y-119692239D01*
X125615081Y-119808954D01*
X125457180Y-120189223D01*
X125456821Y-120600971D01*
X125614058Y-120981515D01*
X125904954Y-121272919D01*
X126285223Y-121430820D01*
X126696971Y-121431179D01*
X127077515Y-121273942D01*
X127254053Y-121097712D01*
X127428954Y-121272919D01*
X127809223Y-121430820D01*
X128220971Y-121431179D01*
X128601515Y-121273942D01*
X128892919Y-120983046D01*
X129050820Y-120602777D01*
X129051179Y-120191029D01*
X128893942Y-119810485D01*
X128776000Y-119692337D01*
X128776000Y-119575761D01*
X128892919Y-119459046D01*
X129050820Y-119078777D01*
X129051179Y-118667029D01*
X128893942Y-118286485D01*
X128717712Y-118109947D01*
X128892919Y-117935046D01*
X129050820Y-117554777D01*
X129051179Y-117143029D01*
X128893942Y-116762485D01*
X128776000Y-116644337D01*
X128776000Y-116527761D01*
X128892919Y-116411046D01*
X129050820Y-116030777D01*
X129051179Y-115619029D01*
X128893942Y-115238485D01*
X128717712Y-115061947D01*
X128892919Y-114887046D01*
X129050820Y-114506777D01*
X129051179Y-114095029D01*
X128893942Y-113714485D01*
X128776000Y-113596337D01*
X128776000Y-113479761D01*
X128892919Y-113363046D01*
X129050820Y-112982777D01*
X129051179Y-112571029D01*
X128893942Y-112190485D01*
X128603046Y-111899081D01*
X128222777Y-111741180D01*
X127811029Y-111740821D01*
X127430485Y-111898058D01*
X127253947Y-112074288D01*
X127079046Y-111899081D01*
X126698777Y-111741180D01*
X126287029Y-111740821D01*
X125906485Y-111898058D01*
X125615081Y-112188954D01*
X125457180Y-112569223D01*
X125456821Y-112980971D01*
X115620000Y-112980971D01*
X115620000Y-111887000D01*
X120015000Y-111887000D01*
X120062789Y-111877666D01*
X120104803Y-111849803D01*
X122009803Y-109944803D01*
X122036994Y-109904410D01*
X122047000Y-109855000D01*
X122047000Y-107950000D01*
X122037666Y-107902211D01*
X122009803Y-107860197D01*
X120104803Y-105955197D01*
X120064410Y-105928006D01*
X120015000Y-105918000D01*
X115620000Y-105918000D01*
X115620000Y-102362000D01*
X120015000Y-102362000D01*
X120062789Y-102352666D01*
X120098186Y-102329191D01*
X120074096Y-102373039D01*
X120084558Y-102430730D01*
X120345363Y-102928424D01*
X120776774Y-103288428D01*
X121313114Y-103455934D01*
X121539000Y-103303471D01*
X121539000Y-102151000D01*
X121793000Y-102151000D01*
X121793000Y-103303471D01*
X122018886Y-103455934D01*
X122555226Y-103288428D01*
X122986637Y-102928424D01*
X123247442Y-102430730D01*
X123257904Y-102373039D01*
X123135915Y-102151000D01*
X121793000Y-102151000D01*
X121539000Y-102151000D01*
X121519000Y-102151000D01*
X121519000Y-101897000D01*
X121539000Y-101897000D01*
X121539000Y-101877000D01*
X121793000Y-101877000D01*
X121793000Y-101897000D01*
X123135915Y-101897000D01*
X123257904Y-101674961D01*
X123247442Y-101617270D01*
X122986637Y-101119576D01*
X122555226Y-100759572D01*
X122532791Y-100752565D01*
X122912730Y-100498698D01*
X123223799Y-100033151D01*
X123333032Y-99484000D01*
X123223799Y-98934849D01*
X122912730Y-98469302D01*
X122532791Y-98215435D01*
X122555226Y-98208428D01*
X122986637Y-97848424D01*
X123247442Y-97350730D01*
X123257904Y-97293039D01*
X123135915Y-97071000D01*
X121793000Y-97071000D01*
X121793000Y-97091000D01*
X121539000Y-97091000D01*
X121539000Y-97071000D01*
X121519000Y-97071000D01*
X121519000Y-96817000D01*
X121539000Y-96817000D01*
X121539000Y-95664529D01*
X121793000Y-95664529D01*
X121793000Y-96817000D01*
X123135915Y-96817000D01*
X123257904Y-96594961D01*
X123247442Y-96537270D01*
X122986637Y-96039576D01*
X122555226Y-95679572D01*
X122018886Y-95512066D01*
X121793000Y-95664529D01*
X121539000Y-95664529D01*
X121313114Y-95512066D01*
X120776774Y-95679572D01*
X120345363Y-96039576D01*
X120128335Y-96453729D01*
X120104803Y-96430197D01*
X120064410Y-96403006D01*
X120015000Y-96393000D01*
X115620000Y-96393000D01*
X115620000Y-92390619D01*
X116128613Y-92390619D01*
X116468155Y-93212372D01*
X117096321Y-93841636D01*
X117917481Y-94182611D01*
X118806619Y-94183387D01*
X119628372Y-93843845D01*
X120257636Y-93215679D01*
X120598611Y-92394519D01*
X120599387Y-91505381D01*
X120259845Y-90683628D01*
X119631679Y-90054364D01*
X118810519Y-89713389D01*
X117921381Y-89712613D01*
X117099628Y-90052155D01*
X116470364Y-90680321D01*
X116129389Y-91501481D01*
X116128613Y-92390619D01*
X115620000Y-92390619D01*
X115620000Y-88596971D01*
X125456821Y-88596971D01*
X125614058Y-88977515D01*
X125732000Y-89095663D01*
X125732000Y-89212239D01*
X125615081Y-89328954D01*
X125457180Y-89709223D01*
X125456821Y-90120971D01*
X125614058Y-90501515D01*
X125790288Y-90678053D01*
X125615081Y-90852954D01*
X125457180Y-91233223D01*
X125456821Y-91644971D01*
X125614058Y-92025515D01*
X125732000Y-92143663D01*
X125732000Y-92260239D01*
X125615081Y-92376954D01*
X125457180Y-92757223D01*
X125456821Y-93168971D01*
X125614058Y-93549515D01*
X125790288Y-93726053D01*
X125615081Y-93900954D01*
X125457180Y-94281223D01*
X125456821Y-94692971D01*
X125614058Y-95073515D01*
X125732000Y-95191663D01*
X125732000Y-95308239D01*
X125615081Y-95424954D01*
X125457180Y-95805223D01*
X125456821Y-96216971D01*
X125614058Y-96597515D01*
X125904954Y-96888919D01*
X126285223Y-97046820D01*
X126696971Y-97047179D01*
X127077515Y-96889942D01*
X127254053Y-96713712D01*
X127428954Y-96888919D01*
X127809223Y-97046820D01*
X128220971Y-97047179D01*
X128601515Y-96889942D01*
X128892919Y-96599046D01*
X129050820Y-96218777D01*
X129051179Y-95807029D01*
X128893942Y-95426485D01*
X128776000Y-95308337D01*
X128776000Y-95191761D01*
X128892919Y-95075046D01*
X129050820Y-94694777D01*
X129051179Y-94283029D01*
X128925971Y-93980000D01*
X139835000Y-93980000D01*
X139835000Y-113284000D01*
X139921397Y-113718346D01*
X140022405Y-113869515D01*
X140167434Y-114086566D01*
X143639433Y-117558566D01*
X143913613Y-117741767D01*
X144007654Y-117804603D01*
X144442000Y-117891000D01*
X148640847Y-117891000D01*
X148345363Y-118137576D01*
X148084558Y-118635270D01*
X148074096Y-118692961D01*
X148196085Y-118915000D01*
X149539000Y-118915000D01*
X149539000Y-118895000D01*
X149793000Y-118895000D01*
X149793000Y-118915000D01*
X151135915Y-118915000D01*
X151257904Y-118692961D01*
X151247442Y-118635270D01*
X150986637Y-118137576D01*
X150555226Y-117777572D01*
X150532791Y-117770565D01*
X150912730Y-117516698D01*
X151223799Y-117051151D01*
X151333032Y-116502000D01*
X151324479Y-116459000D01*
X151333032Y-116416000D01*
X151223799Y-115866849D01*
X150912730Y-115401302D01*
X150594998Y-115189000D01*
X150912730Y-114976698D01*
X151082914Y-114722000D01*
X154287198Y-114722000D01*
X155645198Y-116080000D01*
X153924000Y-116080000D01*
X153633161Y-116137852D01*
X153386599Y-116302599D01*
X151608599Y-118080599D01*
X151443852Y-118327161D01*
X151386000Y-118618000D01*
X151386000Y-121327198D01*
X151299546Y-121413652D01*
X151223799Y-121032849D01*
X150912730Y-120567302D01*
X150532791Y-120313435D01*
X150555226Y-120306428D01*
X150986637Y-119946424D01*
X151247442Y-119448730D01*
X151257904Y-119391039D01*
X151135915Y-119169000D01*
X149793000Y-119169000D01*
X149793000Y-119189000D01*
X149539000Y-119189000D01*
X149539000Y-119169000D01*
X148196085Y-119169000D01*
X148074096Y-119391039D01*
X148084558Y-119448730D01*
X148345363Y-119946424D01*
X148776774Y-120306428D01*
X148799209Y-120313435D01*
X148419270Y-120567302D01*
X148299199Y-120747000D01*
X146281703Y-120747000D01*
X146002777Y-120631180D01*
X145591029Y-120630821D01*
X145210485Y-120788058D01*
X144919081Y-121078954D01*
X144761180Y-121459223D01*
X144760821Y-121870971D01*
X144918058Y-122251515D01*
X145208954Y-122542919D01*
X145589223Y-122700820D01*
X146000971Y-122701179D01*
X146174277Y-122629571D01*
X146285540Y-122607439D01*
X146379039Y-122544965D01*
X146381515Y-122543942D01*
X146383427Y-122542033D01*
X146556434Y-122426434D01*
X146562738Y-122417000D01*
X148299199Y-122417000D01*
X148419270Y-122596698D01*
X148801356Y-122852000D01*
X148419270Y-123107302D01*
X148189593Y-123451038D01*
X148178839Y-123443852D01*
X147888000Y-123386000D01*
X147597161Y-123443852D01*
X147350599Y-123608599D01*
X147185852Y-123855161D01*
X147128000Y-124146000D01*
X147128000Y-124376000D01*
X147185852Y-124666839D01*
X147350599Y-124913401D01*
X147597161Y-125078148D01*
X147888000Y-125136000D01*
X148178839Y-125078148D01*
X148318012Y-124985156D01*
X148419270Y-125136698D01*
X148801356Y-125392000D01*
X148419270Y-125647302D01*
X148299199Y-125827000D01*
X145265703Y-125827000D01*
X144986777Y-125711180D01*
X144575029Y-125710821D01*
X144194485Y-125868058D01*
X143903081Y-126158954D01*
X143745180Y-126539223D01*
X143744821Y-126950971D01*
X143902058Y-127331515D01*
X144192954Y-127622919D01*
X144573223Y-127780820D01*
X144984971Y-127781179D01*
X145158277Y-127709571D01*
X145269540Y-127687439D01*
X145363039Y-127624965D01*
X145365515Y-127623942D01*
X145367427Y-127622033D01*
X145540434Y-127506434D01*
X145546738Y-127497000D01*
X148299199Y-127497000D01*
X148419270Y-127676698D01*
X148884817Y-127987767D01*
X149433968Y-128097000D01*
X149898032Y-128097000D01*
X150447183Y-127987767D01*
X150912730Y-127676698D01*
X151105769Y-127387795D01*
X151140302Y-127422327D01*
X151373691Y-127519000D01*
X152114250Y-127519000D01*
X152273000Y-127360250D01*
X152273000Y-126111000D01*
X152253000Y-126111000D01*
X152253000Y-125857000D01*
X152273000Y-125857000D01*
X152273000Y-124607750D01*
X152114250Y-124449000D01*
X151373691Y-124449000D01*
X151258496Y-124496715D01*
X151333032Y-124122000D01*
X151234775Y-123628027D01*
X152462915Y-122399887D01*
X152997000Y-122399887D01*
X152997000Y-122456113D01*
X153106233Y-123005264D01*
X153417302Y-123470811D01*
X153882849Y-123781880D01*
X154432000Y-123891113D01*
X154981151Y-123781880D01*
X155446698Y-123470811D01*
X155757767Y-123005264D01*
X155867000Y-122456113D01*
X155867000Y-122399887D01*
X155757767Y-121850736D01*
X155446698Y-121385189D01*
X154981151Y-121074120D01*
X154432000Y-120964887D01*
X153882849Y-121074120D01*
X153417302Y-121385189D01*
X153106233Y-121850736D01*
X152997000Y-122399887D01*
X152462915Y-122399887D01*
X152683401Y-122179401D01*
X152848148Y-121932839D01*
X152906000Y-121642000D01*
X152906000Y-118932802D01*
X152996805Y-118841997D01*
X152996752Y-118902187D01*
X153214757Y-119429800D01*
X153618077Y-119833824D01*
X154145309Y-120052750D01*
X154716187Y-120053248D01*
X155243800Y-119835243D01*
X155647824Y-119431923D01*
X155866750Y-118904691D01*
X155867248Y-118333813D01*
X155649243Y-117806200D01*
X155443402Y-117600000D01*
X156187253Y-117600000D01*
X156220344Y-117680086D01*
X156637717Y-118098188D01*
X156665557Y-118109748D01*
X156639914Y-118120344D01*
X156221812Y-118537717D01*
X155995258Y-119083319D01*
X155994743Y-119674089D01*
X156220344Y-120220086D01*
X156637717Y-120638188D01*
X157183319Y-120864742D01*
X157774089Y-120865257D01*
X158320086Y-120639656D01*
X158738188Y-120222283D01*
X158964742Y-119676681D01*
X158965257Y-119085911D01*
X158739656Y-118539914D01*
X158322283Y-118121812D01*
X158294443Y-118110252D01*
X158320086Y-118099656D01*
X158738188Y-117682283D01*
X158964742Y-117136681D01*
X158965257Y-116545911D01*
X158838012Y-116237955D01*
X159033401Y-116107401D01*
X162620802Y-112520000D01*
X171427253Y-112520000D01*
X171460344Y-112600086D01*
X171877717Y-113018188D01*
X171905557Y-113029748D01*
X171879914Y-113040344D01*
X171461812Y-113457717D01*
X171266694Y-113927613D01*
X170894777Y-113773180D01*
X170483029Y-113772821D01*
X170102485Y-113930058D01*
X170053169Y-113979288D01*
X170005046Y-113931081D01*
X169624777Y-113773180D01*
X169213029Y-113772821D01*
X168832485Y-113930058D01*
X168783169Y-113979288D01*
X168735046Y-113931081D01*
X168354777Y-113773180D01*
X167943029Y-113772821D01*
X167562485Y-113930058D01*
X167513169Y-113979288D01*
X167465046Y-113931081D01*
X167084777Y-113773180D01*
X166673029Y-113772821D01*
X166292485Y-113930058D01*
X166243169Y-113979288D01*
X166195046Y-113931081D01*
X165814777Y-113773180D01*
X165403029Y-113772821D01*
X165022485Y-113930058D01*
X164731081Y-114220954D01*
X164573180Y-114601223D01*
X164572821Y-115012971D01*
X164730058Y-115393515D01*
X164779288Y-115442831D01*
X164731081Y-115490954D01*
X164573180Y-115871223D01*
X164572821Y-116282971D01*
X164730058Y-116663515D01*
X164779288Y-116712831D01*
X164731081Y-116760954D01*
X164573180Y-117141223D01*
X164572821Y-117552971D01*
X164730058Y-117933515D01*
X164779288Y-117982831D01*
X164731081Y-118030954D01*
X164573180Y-118411223D01*
X164572821Y-118822971D01*
X164730058Y-119203515D01*
X165020954Y-119494919D01*
X165401223Y-119652820D01*
X165812971Y-119653179D01*
X166193515Y-119495942D01*
X166242831Y-119446712D01*
X166290954Y-119494919D01*
X166671223Y-119652820D01*
X167082971Y-119653179D01*
X167463515Y-119495942D01*
X167754919Y-119205046D01*
X167912820Y-118824777D01*
X167913179Y-118413029D01*
X167755942Y-118032485D01*
X167706712Y-117983169D01*
X167754919Y-117935046D01*
X167912820Y-117554777D01*
X167913179Y-117143029D01*
X167755942Y-116762485D01*
X167706712Y-116713169D01*
X167754919Y-116665046D01*
X167912820Y-116284777D01*
X167913179Y-115873029D01*
X167892304Y-115822507D01*
X167941223Y-115842820D01*
X168352971Y-115843179D01*
X168733515Y-115685942D01*
X168782831Y-115636712D01*
X168830954Y-115684919D01*
X169211223Y-115842820D01*
X169622971Y-115843179D01*
X170003515Y-115685942D01*
X170052831Y-115636712D01*
X170100954Y-115684919D01*
X170481223Y-115842820D01*
X170892971Y-115843179D01*
X171273515Y-115685942D01*
X171564919Y-115395046D01*
X171608966Y-115288968D01*
X171877717Y-115558188D01*
X171905557Y-115569748D01*
X171879914Y-115580344D01*
X171461812Y-115997717D01*
X171235258Y-116543319D01*
X171234743Y-117134089D01*
X171460344Y-117680086D01*
X171877717Y-118098188D01*
X171905557Y-118109748D01*
X171879914Y-118120344D01*
X171461812Y-118537717D01*
X171235258Y-119083319D01*
X171234743Y-119674089D01*
X171460344Y-120220086D01*
X171877717Y-120638188D01*
X172423319Y-120864742D01*
X173014089Y-120865257D01*
X173560086Y-120639656D01*
X173978188Y-120222283D01*
X174204742Y-119676681D01*
X174205257Y-119085911D01*
X173979656Y-118539914D01*
X173562283Y-118121812D01*
X173534443Y-118110252D01*
X173560086Y-118099656D01*
X173676135Y-117983809D01*
X173706599Y-118029401D01*
X174647225Y-118970027D01*
X174548968Y-119464000D01*
X174658201Y-120013151D01*
X174969270Y-120478698D01*
X175351356Y-120734000D01*
X174969270Y-120989302D01*
X174658201Y-121454849D01*
X174548968Y-122004000D01*
X174658201Y-122553151D01*
X174969270Y-123018698D01*
X175351356Y-123274000D01*
X174969270Y-123529302D01*
X174658201Y-123994849D01*
X174548968Y-124544000D01*
X174658201Y-125093151D01*
X174969270Y-125558698D01*
X175349209Y-125812565D01*
X175326774Y-125819572D01*
X174895363Y-126179576D01*
X174634558Y-126677270D01*
X174624096Y-126734961D01*
X174746085Y-126957000D01*
X176089000Y-126957000D01*
X176089000Y-126937000D01*
X176343000Y-126937000D01*
X176343000Y-126957000D01*
X177685915Y-126957000D01*
X177807904Y-126734961D01*
X177797442Y-126677270D01*
X177536637Y-126179576D01*
X177105226Y-125819572D01*
X177082791Y-125812565D01*
X177462730Y-125558698D01*
X177773799Y-125093151D01*
X177883032Y-124544000D01*
X177773799Y-123994849D01*
X177462730Y-123529302D01*
X177080644Y-123274000D01*
X177462730Y-123018698D01*
X177773799Y-122553151D01*
X177883032Y-122004000D01*
X177773799Y-121454849D01*
X177462730Y-120989302D01*
X177080644Y-120734000D01*
X177462730Y-120478698D01*
X177773799Y-120013151D01*
X177883032Y-119464000D01*
X177773799Y-118914849D01*
X177462730Y-118449302D01*
X177144998Y-118237000D01*
X177411394Y-118059000D01*
X181526000Y-118059000D01*
X181960346Y-117972603D01*
X182328566Y-117726566D01*
X185460566Y-114594566D01*
X185519225Y-114506777D01*
X185706603Y-114226346D01*
X185793000Y-113792000D01*
X185793000Y-113488971D01*
X197084821Y-113488971D01*
X197242058Y-113869515D01*
X197360000Y-113987663D01*
X197360000Y-114104239D01*
X197243081Y-114220954D01*
X197085180Y-114601223D01*
X197084821Y-115012971D01*
X197242058Y-115393515D01*
X197418288Y-115570053D01*
X197243081Y-115744954D01*
X197085180Y-116125223D01*
X197084821Y-116536971D01*
X197242058Y-116917515D01*
X197360000Y-117035663D01*
X197360000Y-117152239D01*
X197243081Y-117268954D01*
X197085180Y-117649223D01*
X197084821Y-118060971D01*
X197242058Y-118441515D01*
X197418288Y-118618053D01*
X197243081Y-118792954D01*
X197085180Y-119173223D01*
X197084821Y-119584971D01*
X197242058Y-119965515D01*
X197360000Y-120083663D01*
X197360000Y-120200239D01*
X197243081Y-120316954D01*
X197085180Y-120697223D01*
X197084821Y-121108971D01*
X197242058Y-121489515D01*
X197532954Y-121780919D01*
X197913223Y-121938820D01*
X198324971Y-121939179D01*
X198705515Y-121781942D01*
X198882053Y-121605712D01*
X199056954Y-121780919D01*
X199437223Y-121938820D01*
X199848971Y-121939179D01*
X200229515Y-121781942D01*
X200520919Y-121491046D01*
X200678820Y-121110777D01*
X200679179Y-120699029D01*
X200521942Y-120318485D01*
X200404000Y-120200337D01*
X200404000Y-120083761D01*
X200520919Y-119967046D01*
X200678820Y-119586777D01*
X200679179Y-119175029D01*
X200521942Y-118794485D01*
X200345712Y-118617947D01*
X200520919Y-118443046D01*
X200678820Y-118062777D01*
X200679179Y-117651029D01*
X200526956Y-117282619D01*
X205028613Y-117282619D01*
X205368155Y-118104372D01*
X205996321Y-118733636D01*
X206817481Y-119074611D01*
X207706619Y-119075387D01*
X208528372Y-118735845D01*
X209157636Y-118107679D01*
X209498611Y-117286519D01*
X209499387Y-116397381D01*
X209159845Y-115575628D01*
X208531679Y-114946364D01*
X207710519Y-114605389D01*
X206821381Y-114604613D01*
X205999628Y-114944155D01*
X205370364Y-115572321D01*
X205029389Y-116393481D01*
X205028613Y-117282619D01*
X200526956Y-117282619D01*
X200521942Y-117270485D01*
X200404000Y-117152337D01*
X200404000Y-117035761D01*
X200520919Y-116919046D01*
X200678820Y-116538777D01*
X200679179Y-116127029D01*
X200521942Y-115746485D01*
X200345712Y-115569947D01*
X200520919Y-115395046D01*
X200678820Y-115014777D01*
X200679179Y-114603029D01*
X200521942Y-114222485D01*
X200404000Y-114104337D01*
X200404000Y-113987761D01*
X200520919Y-113871046D01*
X200678820Y-113490777D01*
X200679179Y-113079029D01*
X200521942Y-112698485D01*
X200231046Y-112407081D01*
X199850777Y-112249180D01*
X199439029Y-112248821D01*
X199058485Y-112406058D01*
X198881947Y-112582288D01*
X198707046Y-112407081D01*
X198326777Y-112249180D01*
X197915029Y-112248821D01*
X197534485Y-112406058D01*
X197243081Y-112696954D01*
X197085180Y-113077223D01*
X197084821Y-113488971D01*
X185793000Y-113488971D01*
X185793000Y-112193039D01*
X202624096Y-112193039D01*
X202634558Y-112250730D01*
X202895363Y-112748424D01*
X203326774Y-113108428D01*
X203863114Y-113275934D01*
X204089000Y-113123471D01*
X204089000Y-111971000D01*
X202746085Y-111971000D01*
X202624096Y-112193039D01*
X185793000Y-112193039D01*
X185793000Y-106414961D01*
X202624096Y-106414961D01*
X202746085Y-106637000D01*
X204089000Y-106637000D01*
X204089000Y-105484529D01*
X203863114Y-105332066D01*
X203326774Y-105499572D01*
X202895363Y-105859576D01*
X202634558Y-106357270D01*
X202624096Y-106414961D01*
X185793000Y-106414961D01*
X185793000Y-93048000D01*
X185706603Y-92613654D01*
X185460566Y-92245434D01*
X184777000Y-91561868D01*
X184777000Y-88596971D01*
X197084821Y-88596971D01*
X197242058Y-88977515D01*
X197360000Y-89095663D01*
X197360000Y-89212239D01*
X197243081Y-89328954D01*
X197085180Y-89709223D01*
X197084821Y-90120971D01*
X197242058Y-90501515D01*
X197418288Y-90678053D01*
X197243081Y-90852954D01*
X197085180Y-91233223D01*
X197084821Y-91644971D01*
X197242058Y-92025515D01*
X197360000Y-92143663D01*
X197360000Y-92260239D01*
X197243081Y-92376954D01*
X197085180Y-92757223D01*
X197084821Y-93168971D01*
X197242058Y-93549515D01*
X197418288Y-93726053D01*
X197243081Y-93900954D01*
X197085180Y-94281223D01*
X197084821Y-94692971D01*
X197242058Y-95073515D01*
X197360000Y-95191663D01*
X197360000Y-95308239D01*
X197243081Y-95424954D01*
X197085180Y-95805223D01*
X197084821Y-96216971D01*
X197242058Y-96597515D01*
X197532954Y-96888919D01*
X197913223Y-97046820D01*
X198324971Y-97047179D01*
X198705515Y-96889942D01*
X198882053Y-96713712D01*
X199056954Y-96888919D01*
X199437223Y-97046820D01*
X199848971Y-97047179D01*
X200229515Y-96889942D01*
X200520919Y-96599046D01*
X200678820Y-96218777D01*
X200679179Y-95807029D01*
X200521942Y-95426485D01*
X200404000Y-95308337D01*
X200404000Y-95191761D01*
X200520919Y-95075046D01*
X200678820Y-94694777D01*
X200679179Y-94283029D01*
X200521942Y-93902485D01*
X200345712Y-93725947D01*
X200520919Y-93551046D01*
X200678820Y-93170777D01*
X200679179Y-92759029D01*
X200631906Y-92644619D01*
X205028613Y-92644619D01*
X205368155Y-93466372D01*
X205996321Y-94095636D01*
X206817481Y-94436611D01*
X207706619Y-94437387D01*
X208528372Y-94097845D01*
X209157636Y-93469679D01*
X209498611Y-92648519D01*
X209499387Y-91759381D01*
X209159845Y-90937628D01*
X208531679Y-90308364D01*
X207710519Y-89967389D01*
X206821381Y-89966613D01*
X205999628Y-90306155D01*
X205370364Y-90934321D01*
X205029389Y-91755481D01*
X205028613Y-92644619D01*
X200631906Y-92644619D01*
X200521942Y-92378485D01*
X200404000Y-92260337D01*
X200404000Y-92143761D01*
X200520919Y-92027046D01*
X200678820Y-91646777D01*
X200679179Y-91235029D01*
X200521942Y-90854485D01*
X200345712Y-90677947D01*
X200520919Y-90503046D01*
X200678820Y-90122777D01*
X200679179Y-89711029D01*
X200521942Y-89330485D01*
X200404000Y-89212337D01*
X200404000Y-89095761D01*
X200520919Y-88979046D01*
X200678820Y-88598777D01*
X200679179Y-88187029D01*
X200521942Y-87806485D01*
X200270935Y-87555039D01*
X202624096Y-87555039D01*
X202634558Y-87612730D01*
X202895363Y-88110424D01*
X203326774Y-88470428D01*
X203863114Y-88637934D01*
X204089000Y-88485471D01*
X204089000Y-87333000D01*
X202746085Y-87333000D01*
X202624096Y-87555039D01*
X200270935Y-87555039D01*
X200231046Y-87515081D01*
X199850777Y-87357180D01*
X199439029Y-87356821D01*
X199058485Y-87514058D01*
X198881947Y-87690288D01*
X198707046Y-87515081D01*
X198326777Y-87357180D01*
X197915029Y-87356821D01*
X197534485Y-87514058D01*
X197243081Y-87804954D01*
X197085180Y-88185223D01*
X197084821Y-88596971D01*
X184777000Y-88596971D01*
X184777000Y-83566000D01*
X184690603Y-83131654D01*
X184444566Y-82763434D01*
X183458093Y-81776961D01*
X202624096Y-81776961D01*
X202746085Y-81999000D01*
X204089000Y-81999000D01*
X204089000Y-80846529D01*
X203863114Y-80694066D01*
X203326774Y-80861572D01*
X202895363Y-81221576D01*
X202634558Y-81719270D01*
X202624096Y-81776961D01*
X183458093Y-81776961D01*
X181142565Y-79461433D01*
X180774346Y-79215397D01*
X180340000Y-79129000D01*
X154648132Y-79129000D01*
X154472566Y-78953434D01*
X154371325Y-78885787D01*
X154104346Y-78707397D01*
X153670000Y-78621000D01*
X147320000Y-78621000D01*
X146885655Y-78707396D01*
X146517434Y-78953434D01*
X141775434Y-83695434D01*
X141529397Y-84063654D01*
X141443000Y-84498000D01*
X141443000Y-91901868D01*
X140167434Y-93177434D01*
X139921397Y-93545654D01*
X139835000Y-93980000D01*
X128925971Y-93980000D01*
X128893942Y-93902485D01*
X128717712Y-93725947D01*
X128892919Y-93551046D01*
X129050820Y-93170777D01*
X129051179Y-92759029D01*
X128893942Y-92378485D01*
X128776000Y-92260337D01*
X128776000Y-92143761D01*
X128892919Y-92027046D01*
X129050820Y-91646777D01*
X129051179Y-91235029D01*
X128893942Y-90854485D01*
X128717712Y-90677947D01*
X128892919Y-90503046D01*
X129050820Y-90122777D01*
X129051179Y-89711029D01*
X128893942Y-89330485D01*
X128776000Y-89212337D01*
X128776000Y-89095761D01*
X128892919Y-88979046D01*
X129050820Y-88598777D01*
X129051179Y-88187029D01*
X128893942Y-87806485D01*
X128603046Y-87515081D01*
X128222777Y-87357180D01*
X127811029Y-87356821D01*
X127430485Y-87514058D01*
X127253947Y-87690288D01*
X127079046Y-87515081D01*
X126698777Y-87357180D01*
X126287029Y-87356821D01*
X125906485Y-87514058D01*
X125615081Y-87804954D01*
X125457180Y-88185223D01*
X125456821Y-88596971D01*
X115620000Y-88596971D01*
X115620000Y-87122000D01*
X120015000Y-87122000D01*
X120062789Y-87112666D01*
X120104803Y-87084803D01*
X122009803Y-85179803D01*
X122036994Y-85139410D01*
X122047000Y-85090000D01*
X122047000Y-83185000D01*
X122037666Y-83137211D01*
X122009803Y-83095197D01*
X120104803Y-81190197D01*
X120064410Y-81163006D01*
X120015000Y-81153000D01*
X115620000Y-81153000D01*
X115620000Y-80077467D01*
X115773602Y-79305259D01*
X116172807Y-78707807D01*
X116770257Y-78308602D01*
X117542467Y-78155000D01*
X208212533Y-78155000D01*
X208984741Y-78308602D01*
G36*
X183523000Y-113321868D02*
X181055868Y-115789000D01*
X177282686Y-115789000D01*
X177082791Y-115655435D01*
X177105226Y-115648428D01*
X177536637Y-115288424D01*
X177797442Y-114790730D01*
X177807904Y-114733039D01*
X177685915Y-114511000D01*
X176343000Y-114511000D01*
X176343000Y-114531000D01*
X176089000Y-114531000D01*
X176089000Y-114511000D01*
X176069000Y-114511000D01*
X176069000Y-114257000D01*
X176089000Y-114257000D01*
X176089000Y-114237000D01*
X176343000Y-114237000D01*
X176343000Y-114257000D01*
X177685915Y-114257000D01*
X177807904Y-114034961D01*
X177797442Y-113977270D01*
X177536637Y-113479576D01*
X177105226Y-113119572D01*
X177082791Y-113112565D01*
X177462730Y-112858698D01*
X177582801Y-112679000D01*
X180616297Y-112679000D01*
X180895223Y-112794820D01*
X181306971Y-112795179D01*
X181687515Y-112637942D01*
X181978919Y-112347046D01*
X181999580Y-112297288D01*
X183470434Y-110826434D01*
X183500900Y-110780839D01*
X183523000Y-110747763D01*
X183523000Y-113321868D01*
X183523000Y-113321868D01*
G37*
X183523000Y-113321868D02*
X181055868Y-115789000D01*
X177282686Y-115789000D01*
X177082791Y-115655435D01*
X177105226Y-115648428D01*
X177536637Y-115288424D01*
X177797442Y-114790730D01*
X177807904Y-114733039D01*
X177685915Y-114511000D01*
X176343000Y-114511000D01*
X176343000Y-114531000D01*
X176089000Y-114531000D01*
X176089000Y-114511000D01*
X176069000Y-114511000D01*
X176069000Y-114257000D01*
X176089000Y-114257000D01*
X176089000Y-114237000D01*
X176343000Y-114237000D01*
X176343000Y-114257000D01*
X177685915Y-114257000D01*
X177807904Y-114034961D01*
X177797442Y-113977270D01*
X177536637Y-113479576D01*
X177105226Y-113119572D01*
X177082791Y-113112565D01*
X177462730Y-112858698D01*
X177582801Y-112679000D01*
X180616297Y-112679000D01*
X180895223Y-112794820D01*
X181306971Y-112795179D01*
X181687515Y-112637942D01*
X181978919Y-112347046D01*
X181999580Y-112297288D01*
X183470434Y-110826434D01*
X183500900Y-110780839D01*
X183523000Y-110747763D01*
X183523000Y-113321868D01*
G36*
X151268058Y-87199515D02*
X151558954Y-87490919D01*
X151939223Y-87648820D01*
X152000005Y-87648873D01*
X152571566Y-88220434D01*
X152706449Y-88310560D01*
X152666000Y-88310560D01*
X152430683Y-88354838D01*
X152214559Y-88493910D01*
X152069569Y-88706110D01*
X152018560Y-88958000D01*
X152018560Y-89858000D01*
X152062838Y-90093317D01*
X152129978Y-90197655D01*
X152086457Y-90262788D01*
X152003866Y-90678000D01*
X152086457Y-91093212D01*
X152236170Y-91317274D01*
X152071592Y-91653999D01*
X152198498Y-91821000D01*
X153289000Y-91821000D01*
X153289000Y-91801000D01*
X153543000Y-91801000D01*
X153543000Y-91821000D01*
X154633502Y-91821000D01*
X154760408Y-91653999D01*
X154595830Y-91317274D01*
X154666653Y-91211279D01*
X155983282Y-91211279D01*
X156009685Y-91801458D01*
X156184741Y-92224080D01*
X156436042Y-92304353D01*
X157300395Y-91440000D01*
X156436042Y-90575647D01*
X156184741Y-90655920D01*
X155983282Y-91211279D01*
X154666653Y-91211279D01*
X154745543Y-91093212D01*
X154828134Y-90678000D01*
X154745543Y-90262788D01*
X154702241Y-90197981D01*
X154762431Y-90109890D01*
X154813440Y-89858000D01*
X154813440Y-88958000D01*
X154769162Y-88722683D01*
X154630090Y-88506559D01*
X154569266Y-88465000D01*
X156052693Y-88465000D01*
X155995258Y-88603319D01*
X155994743Y-89194089D01*
X156220344Y-89740086D01*
X156637717Y-90158188D01*
X156685312Y-90177951D01*
X156615647Y-90396042D01*
X157480000Y-91260395D01*
X158344353Y-90396042D01*
X158274819Y-90178360D01*
X158320086Y-90159656D01*
X158738188Y-89742283D01*
X158865886Y-89434754D01*
X159439000Y-90007868D01*
X159439000Y-90840132D01*
X158961032Y-91318100D01*
X158950315Y-91078542D01*
X158775259Y-90655920D01*
X158523958Y-90575647D01*
X157659605Y-91440000D01*
X157673748Y-91454143D01*
X157494143Y-91633748D01*
X157480000Y-91619605D01*
X156615647Y-92483958D01*
X156685181Y-92701640D01*
X156639914Y-92720344D01*
X156221812Y-93137717D01*
X155995258Y-93683319D01*
X155994743Y-94274089D01*
X156220344Y-94820086D01*
X156637717Y-95238188D01*
X156665557Y-95249748D01*
X156639914Y-95260344D01*
X156221812Y-95677717D01*
X155995258Y-96223319D01*
X155994743Y-96814089D01*
X156220344Y-97360086D01*
X156291344Y-97431210D01*
X155436277Y-98286277D01*
X155276949Y-98524728D01*
X155221000Y-98806000D01*
X155221000Y-100587553D01*
X153597723Y-98964277D01*
X153359272Y-98804949D01*
X153339419Y-98801000D01*
X153078000Y-98749000D01*
X151099618Y-98749000D01*
X150912730Y-98469302D01*
X150530644Y-98214000D01*
X150912730Y-97958698D01*
X151223799Y-97493151D01*
X151333032Y-96944000D01*
X151223799Y-96394849D01*
X151201210Y-96361041D01*
X153040086Y-96361041D01*
X153279611Y-96867134D01*
X153694577Y-97243041D01*
X154082961Y-97403904D01*
X154305000Y-97281915D01*
X154305000Y-96139000D01*
X154559000Y-96139000D01*
X154559000Y-97281915D01*
X154781039Y-97403904D01*
X155169423Y-97243041D01*
X155584389Y-96867134D01*
X155823914Y-96361041D01*
X155702629Y-96139000D01*
X154559000Y-96139000D01*
X154305000Y-96139000D01*
X153161371Y-96139000D01*
X153040086Y-96361041D01*
X151201210Y-96361041D01*
X150912730Y-95929302D01*
X150532791Y-95675435D01*
X150555226Y-95668428D01*
X150561779Y-95662959D01*
X153040086Y-95662959D01*
X153161371Y-95885000D01*
X154305000Y-95885000D01*
X154305000Y-94742085D01*
X154559000Y-94742085D01*
X154559000Y-95885000D01*
X155702629Y-95885000D01*
X155823914Y-95662959D01*
X155584389Y-95156866D01*
X155169423Y-94780959D01*
X154781039Y-94620096D01*
X154559000Y-94742085D01*
X154305000Y-94742085D01*
X154082961Y-94620096D01*
X153694577Y-94780959D01*
X153279611Y-95156866D01*
X153040086Y-95662959D01*
X150561779Y-95662959D01*
X150986637Y-95308424D01*
X151247442Y-94810730D01*
X151257904Y-94753039D01*
X151135915Y-94531000D01*
X149793000Y-94531000D01*
X149793000Y-94551000D01*
X149539000Y-94551000D01*
X149539000Y-94531000D01*
X148196085Y-94531000D01*
X148074096Y-94753039D01*
X148084558Y-94810730D01*
X148345363Y-95308424D01*
X148776774Y-95668428D01*
X148799209Y-95675435D01*
X148419270Y-95929302D01*
X148299199Y-96109000D01*
X145880000Y-96109000D01*
X145560459Y-96172561D01*
X145296476Y-96348949D01*
X145289566Y-96353566D01*
X145142259Y-96500873D01*
X145083029Y-96500821D01*
X144702485Y-96658058D01*
X144411081Y-96948954D01*
X144253180Y-97329223D01*
X144253127Y-97390005D01*
X142411566Y-99231566D01*
X142230561Y-99502459D01*
X142167000Y-99822000D01*
X142167000Y-108966000D01*
X142230561Y-109285541D01*
X142355149Y-109472000D01*
X142411566Y-109556434D01*
X144506873Y-111651741D01*
X144506821Y-111710971D01*
X144664058Y-112091515D01*
X144954954Y-112382919D01*
X145335223Y-112540820D01*
X145746971Y-112541179D01*
X146127515Y-112383942D01*
X146418919Y-112093046D01*
X146576820Y-111712777D01*
X146577179Y-111301029D01*
X146419942Y-110920485D01*
X146129046Y-110629081D01*
X145748777Y-110471180D01*
X145687995Y-110471127D01*
X143837000Y-108620132D01*
X143837000Y-106106920D01*
X143929262Y-106245000D01*
X143935566Y-106254434D01*
X144252873Y-106571741D01*
X144252821Y-106630971D01*
X144410058Y-107011515D01*
X144700954Y-107302919D01*
X145081223Y-107460820D01*
X145492971Y-107461179D01*
X145873515Y-107303942D01*
X146164919Y-107013046D01*
X146322820Y-106632777D01*
X146323179Y-106221029D01*
X146228944Y-105992961D01*
X148074096Y-105992961D01*
X148196085Y-106215000D01*
X149539000Y-106215000D01*
X149539000Y-105062529D01*
X149793000Y-105062529D01*
X149793000Y-106215000D01*
X151135915Y-106215000D01*
X151257904Y-105992961D01*
X151247442Y-105935270D01*
X150986637Y-105437576D01*
X150555226Y-105077572D01*
X150018886Y-104910066D01*
X149793000Y-105062529D01*
X149539000Y-105062529D01*
X149313114Y-104910066D01*
X148776774Y-105077572D01*
X148345363Y-105437576D01*
X148084558Y-105935270D01*
X148074096Y-105992961D01*
X146228944Y-105992961D01*
X146165942Y-105840485D01*
X145875046Y-105549081D01*
X145494777Y-105391180D01*
X145433995Y-105391127D01*
X145361000Y-105318132D01*
X145361000Y-103498892D01*
X145402919Y-103457046D01*
X145423580Y-103407288D01*
X145971868Y-102859000D01*
X147899360Y-102859000D01*
X147713081Y-103044954D01*
X147555180Y-103425223D01*
X147554821Y-103836971D01*
X147712058Y-104217515D01*
X148002954Y-104508919D01*
X148383223Y-104666820D01*
X148794971Y-104667179D01*
X149175515Y-104509942D01*
X149293663Y-104392000D01*
X150053198Y-104392000D01*
X151386000Y-105724802D01*
X151386000Y-108712000D01*
X151443852Y-109002839D01*
X151608599Y-109249401D01*
X153386599Y-111027401D01*
X153540550Y-111130268D01*
X153216176Y-111454077D01*
X152997250Y-111981309D01*
X152996752Y-112552187D01*
X153214757Y-113079800D01*
X153336744Y-113202000D01*
X151082914Y-113202000D01*
X150912730Y-112947302D01*
X150530644Y-112692000D01*
X150912730Y-112436698D01*
X151223799Y-111971151D01*
X151333032Y-111422000D01*
X151223799Y-110872849D01*
X150912730Y-110407302D01*
X150530644Y-110152000D01*
X150912730Y-109896698D01*
X151223799Y-109431151D01*
X151333032Y-108882000D01*
X151223799Y-108332849D01*
X150912730Y-107867302D01*
X150532791Y-107613435D01*
X150555226Y-107606428D01*
X150986637Y-107246424D01*
X151247442Y-106748730D01*
X151257904Y-106691039D01*
X151135915Y-106469000D01*
X149793000Y-106469000D01*
X149793000Y-106489000D01*
X149539000Y-106489000D01*
X149539000Y-106469000D01*
X148196085Y-106469000D01*
X148074096Y-106691039D01*
X148084558Y-106748730D01*
X148345363Y-107246424D01*
X148776774Y-107606428D01*
X148799209Y-107613435D01*
X148419270Y-107867302D01*
X148108201Y-108332849D01*
X147998968Y-108882000D01*
X148108201Y-109431151D01*
X148419270Y-109896698D01*
X148801356Y-110152000D01*
X148419270Y-110407302D01*
X148108201Y-110872849D01*
X147998968Y-111422000D01*
X148108201Y-111971151D01*
X148419270Y-112436698D01*
X148801356Y-112692000D01*
X148419270Y-112947302D01*
X148108201Y-113412849D01*
X147998968Y-113962000D01*
X148108201Y-114511151D01*
X148419270Y-114976698D01*
X148737002Y-115189000D01*
X148419270Y-115401302D01*
X148272472Y-115621000D01*
X144912133Y-115621000D01*
X142105000Y-112813868D01*
X142105000Y-94450132D01*
X143556132Y-92999000D01*
X148599314Y-92999000D01*
X148799209Y-93132565D01*
X148776774Y-93139572D01*
X148345363Y-93499576D01*
X148084558Y-93997270D01*
X148074096Y-94054961D01*
X148196085Y-94277000D01*
X149539000Y-94277000D01*
X149539000Y-94257000D01*
X149793000Y-94257000D01*
X149793000Y-94277000D01*
X151135915Y-94277000D01*
X151257904Y-94054961D01*
X151247442Y-93997270D01*
X150986637Y-93499576D01*
X150555226Y-93139572D01*
X150532791Y-93132565D01*
X150912730Y-92878698D01*
X151223799Y-92413151D01*
X151257842Y-92242001D01*
X152071592Y-92242001D01*
X152258987Y-92625408D01*
X152583456Y-92901808D01*
X152989000Y-93033000D01*
X153289000Y-93033000D01*
X153289000Y-92075000D01*
X153543000Y-92075000D01*
X153543000Y-93033000D01*
X153843000Y-93033000D01*
X154248544Y-92901808D01*
X154573013Y-92625408D01*
X154760408Y-92242001D01*
X154633502Y-92075000D01*
X153543000Y-92075000D01*
X153289000Y-92075000D01*
X152198498Y-92075000D01*
X152071592Y-92242001D01*
X151257842Y-92242001D01*
X151333032Y-91864000D01*
X151324479Y-91821000D01*
X151333032Y-91778000D01*
X151223799Y-91228849D01*
X150912730Y-90763302D01*
X150594998Y-90551000D01*
X150912730Y-90338698D01*
X151223799Y-89873151D01*
X151333032Y-89324000D01*
X151223799Y-88774849D01*
X150912730Y-88309302D01*
X150530644Y-88054000D01*
X150912730Y-87798698D01*
X151223799Y-87333151D01*
X151256125Y-87170636D01*
X151268058Y-87199515D01*
X151268058Y-87199515D01*
G37*
X151268058Y-87199515D02*
X151558954Y-87490919D01*
X151939223Y-87648820D01*
X152000005Y-87648873D01*
X152571566Y-88220434D01*
X152706449Y-88310560D01*
X152666000Y-88310560D01*
X152430683Y-88354838D01*
X152214559Y-88493910D01*
X152069569Y-88706110D01*
X152018560Y-88958000D01*
X152018560Y-89858000D01*
X152062838Y-90093317D01*
X152129978Y-90197655D01*
X152086457Y-90262788D01*
X152003866Y-90678000D01*
X152086457Y-91093212D01*
X152236170Y-91317274D01*
X152071592Y-91653999D01*
X152198498Y-91821000D01*
X153289000Y-91821000D01*
X153289000Y-91801000D01*
X153543000Y-91801000D01*
X153543000Y-91821000D01*
X154633502Y-91821000D01*
X154760408Y-91653999D01*
X154595830Y-91317274D01*
X154666653Y-91211279D01*
X155983282Y-91211279D01*
X156009685Y-91801458D01*
X156184741Y-92224080D01*
X156436042Y-92304353D01*
X157300395Y-91440000D01*
X156436042Y-90575647D01*
X156184741Y-90655920D01*
X155983282Y-91211279D01*
X154666653Y-91211279D01*
X154745543Y-91093212D01*
X154828134Y-90678000D01*
X154745543Y-90262788D01*
X154702241Y-90197981D01*
X154762431Y-90109890D01*
X154813440Y-89858000D01*
X154813440Y-88958000D01*
X154769162Y-88722683D01*
X154630090Y-88506559D01*
X154569266Y-88465000D01*
X156052693Y-88465000D01*
X155995258Y-88603319D01*
X155994743Y-89194089D01*
X156220344Y-89740086D01*
X156637717Y-90158188D01*
X156685312Y-90177951D01*
X156615647Y-90396042D01*
X157480000Y-91260395D01*
X158344353Y-90396042D01*
X158274819Y-90178360D01*
X158320086Y-90159656D01*
X158738188Y-89742283D01*
X158865886Y-89434754D01*
X159439000Y-90007868D01*
X159439000Y-90840132D01*
X158961032Y-91318100D01*
X158950315Y-91078542D01*
X158775259Y-90655920D01*
X158523958Y-90575647D01*
X157659605Y-91440000D01*
X157673748Y-91454143D01*
X157494143Y-91633748D01*
X157480000Y-91619605D01*
X156615647Y-92483958D01*
X156685181Y-92701640D01*
X156639914Y-92720344D01*
X156221812Y-93137717D01*
X155995258Y-93683319D01*
X155994743Y-94274089D01*
X156220344Y-94820086D01*
X156637717Y-95238188D01*
X156665557Y-95249748D01*
X156639914Y-95260344D01*
X156221812Y-95677717D01*
X155995258Y-96223319D01*
X155994743Y-96814089D01*
X156220344Y-97360086D01*
X156291344Y-97431210D01*
X155436277Y-98286277D01*
X155276949Y-98524728D01*
X155221000Y-98806000D01*
X155221000Y-100587553D01*
X153597723Y-98964277D01*
X153359272Y-98804949D01*
X153339419Y-98801000D01*
X153078000Y-98749000D01*
X151099618Y-98749000D01*
X150912730Y-98469302D01*
X150530644Y-98214000D01*
X150912730Y-97958698D01*
X151223799Y-97493151D01*
X151333032Y-96944000D01*
X151223799Y-96394849D01*
X151201210Y-96361041D01*
X153040086Y-96361041D01*
X153279611Y-96867134D01*
X153694577Y-97243041D01*
X154082961Y-97403904D01*
X154305000Y-97281915D01*
X154305000Y-96139000D01*
X154559000Y-96139000D01*
X154559000Y-97281915D01*
X154781039Y-97403904D01*
X155169423Y-97243041D01*
X155584389Y-96867134D01*
X155823914Y-96361041D01*
X155702629Y-96139000D01*
X154559000Y-96139000D01*
X154305000Y-96139000D01*
X153161371Y-96139000D01*
X153040086Y-96361041D01*
X151201210Y-96361041D01*
X150912730Y-95929302D01*
X150532791Y-95675435D01*
X150555226Y-95668428D01*
X150561779Y-95662959D01*
X153040086Y-95662959D01*
X153161371Y-95885000D01*
X154305000Y-95885000D01*
X154305000Y-94742085D01*
X154559000Y-94742085D01*
X154559000Y-95885000D01*
X155702629Y-95885000D01*
X155823914Y-95662959D01*
X155584389Y-95156866D01*
X155169423Y-94780959D01*
X154781039Y-94620096D01*
X154559000Y-94742085D01*
X154305000Y-94742085D01*
X154082961Y-94620096D01*
X153694577Y-94780959D01*
X153279611Y-95156866D01*
X153040086Y-95662959D01*
X150561779Y-95662959D01*
X150986637Y-95308424D01*
X151247442Y-94810730D01*
X151257904Y-94753039D01*
X151135915Y-94531000D01*
X149793000Y-94531000D01*
X149793000Y-94551000D01*
X149539000Y-94551000D01*
X149539000Y-94531000D01*
X148196085Y-94531000D01*
X148074096Y-94753039D01*
X148084558Y-94810730D01*
X148345363Y-95308424D01*
X148776774Y-95668428D01*
X148799209Y-95675435D01*
X148419270Y-95929302D01*
X148299199Y-96109000D01*
X145880000Y-96109000D01*
X145560459Y-96172561D01*
X145296476Y-96348949D01*
X145289566Y-96353566D01*
X145142259Y-96500873D01*
X145083029Y-96500821D01*
X144702485Y-96658058D01*
X144411081Y-96948954D01*
X144253180Y-97329223D01*
X144253127Y-97390005D01*
X142411566Y-99231566D01*
X142230561Y-99502459D01*
X142167000Y-99822000D01*
X142167000Y-108966000D01*
X142230561Y-109285541D01*
X142355149Y-109472000D01*
X142411566Y-109556434D01*
X144506873Y-111651741D01*
X144506821Y-111710971D01*
X144664058Y-112091515D01*
X144954954Y-112382919D01*
X145335223Y-112540820D01*
X145746971Y-112541179D01*
X146127515Y-112383942D01*
X146418919Y-112093046D01*
X146576820Y-111712777D01*
X146577179Y-111301029D01*
X146419942Y-110920485D01*
X146129046Y-110629081D01*
X145748777Y-110471180D01*
X145687995Y-110471127D01*
X143837000Y-108620132D01*
X143837000Y-106106920D01*
X143929262Y-106245000D01*
X143935566Y-106254434D01*
X144252873Y-106571741D01*
X144252821Y-106630971D01*
X144410058Y-107011515D01*
X144700954Y-107302919D01*
X145081223Y-107460820D01*
X145492971Y-107461179D01*
X145873515Y-107303942D01*
X146164919Y-107013046D01*
X146322820Y-106632777D01*
X146323179Y-106221029D01*
X146228944Y-105992961D01*
X148074096Y-105992961D01*
X148196085Y-106215000D01*
X149539000Y-106215000D01*
X149539000Y-105062529D01*
X149793000Y-105062529D01*
X149793000Y-106215000D01*
X151135915Y-106215000D01*
X151257904Y-105992961D01*
X151247442Y-105935270D01*
X150986637Y-105437576D01*
X150555226Y-105077572D01*
X150018886Y-104910066D01*
X149793000Y-105062529D01*
X149539000Y-105062529D01*
X149313114Y-104910066D01*
X148776774Y-105077572D01*
X148345363Y-105437576D01*
X148084558Y-105935270D01*
X148074096Y-105992961D01*
X146228944Y-105992961D01*
X146165942Y-105840485D01*
X145875046Y-105549081D01*
X145494777Y-105391180D01*
X145433995Y-105391127D01*
X145361000Y-105318132D01*
X145361000Y-103498892D01*
X145402919Y-103457046D01*
X145423580Y-103407288D01*
X145971868Y-102859000D01*
X147899360Y-102859000D01*
X147713081Y-103044954D01*
X147555180Y-103425223D01*
X147554821Y-103836971D01*
X147712058Y-104217515D01*
X148002954Y-104508919D01*
X148383223Y-104666820D01*
X148794971Y-104667179D01*
X149175515Y-104509942D01*
X149293663Y-104392000D01*
X150053198Y-104392000D01*
X151386000Y-105724802D01*
X151386000Y-108712000D01*
X151443852Y-109002839D01*
X151608599Y-109249401D01*
X153386599Y-111027401D01*
X153540550Y-111130268D01*
X153216176Y-111454077D01*
X152997250Y-111981309D01*
X152996752Y-112552187D01*
X153214757Y-113079800D01*
X153336744Y-113202000D01*
X151082914Y-113202000D01*
X150912730Y-112947302D01*
X150530644Y-112692000D01*
X150912730Y-112436698D01*
X151223799Y-111971151D01*
X151333032Y-111422000D01*
X151223799Y-110872849D01*
X150912730Y-110407302D01*
X150530644Y-110152000D01*
X150912730Y-109896698D01*
X151223799Y-109431151D01*
X151333032Y-108882000D01*
X151223799Y-108332849D01*
X150912730Y-107867302D01*
X150532791Y-107613435D01*
X150555226Y-107606428D01*
X150986637Y-107246424D01*
X151247442Y-106748730D01*
X151257904Y-106691039D01*
X151135915Y-106469000D01*
X149793000Y-106469000D01*
X149793000Y-106489000D01*
X149539000Y-106489000D01*
X149539000Y-106469000D01*
X148196085Y-106469000D01*
X148074096Y-106691039D01*
X148084558Y-106748730D01*
X148345363Y-107246424D01*
X148776774Y-107606428D01*
X148799209Y-107613435D01*
X148419270Y-107867302D01*
X148108201Y-108332849D01*
X147998968Y-108882000D01*
X148108201Y-109431151D01*
X148419270Y-109896698D01*
X148801356Y-110152000D01*
X148419270Y-110407302D01*
X148108201Y-110872849D01*
X147998968Y-111422000D01*
X148108201Y-111971151D01*
X148419270Y-112436698D01*
X148801356Y-112692000D01*
X148419270Y-112947302D01*
X148108201Y-113412849D01*
X147998968Y-113962000D01*
X148108201Y-114511151D01*
X148419270Y-114976698D01*
X148737002Y-115189000D01*
X148419270Y-115401302D01*
X148272472Y-115621000D01*
X144912133Y-115621000D01*
X142105000Y-112813868D01*
X142105000Y-94450132D01*
X143556132Y-92999000D01*
X148599314Y-92999000D01*
X148799209Y-93132565D01*
X148776774Y-93139572D01*
X148345363Y-93499576D01*
X148084558Y-93997270D01*
X148074096Y-94054961D01*
X148196085Y-94277000D01*
X149539000Y-94277000D01*
X149539000Y-94257000D01*
X149793000Y-94257000D01*
X149793000Y-94277000D01*
X151135915Y-94277000D01*
X151257904Y-94054961D01*
X151247442Y-93997270D01*
X150986637Y-93499576D01*
X150555226Y-93139572D01*
X150532791Y-93132565D01*
X150912730Y-92878698D01*
X151223799Y-92413151D01*
X151257842Y-92242001D01*
X152071592Y-92242001D01*
X152258987Y-92625408D01*
X152583456Y-92901808D01*
X152989000Y-93033000D01*
X153289000Y-93033000D01*
X153289000Y-92075000D01*
X153543000Y-92075000D01*
X153543000Y-93033000D01*
X153843000Y-93033000D01*
X154248544Y-92901808D01*
X154573013Y-92625408D01*
X154760408Y-92242001D01*
X154633502Y-92075000D01*
X153543000Y-92075000D01*
X153289000Y-92075000D01*
X152198498Y-92075000D01*
X152071592Y-92242001D01*
X151257842Y-92242001D01*
X151333032Y-91864000D01*
X151324479Y-91821000D01*
X151333032Y-91778000D01*
X151223799Y-91228849D01*
X150912730Y-90763302D01*
X150594998Y-90551000D01*
X150912730Y-90338698D01*
X151223799Y-89873151D01*
X151333032Y-89324000D01*
X151223799Y-88774849D01*
X150912730Y-88309302D01*
X150530644Y-88054000D01*
X150912730Y-87798698D01*
X151223799Y-87333151D01*
X151256125Y-87170636D01*
X151268058Y-87199515D01*
G36*
X183523000Y-93518132D02*
X183523000Y-98802237D01*
X183470434Y-98723566D01*
X181883127Y-97136259D01*
X181883179Y-97077029D01*
X181725942Y-96696485D01*
X181435046Y-96405081D01*
X181054777Y-96247180D01*
X180643029Y-96246821D01*
X180262485Y-96404058D01*
X179971081Y-96694954D01*
X179813180Y-97075223D01*
X179812821Y-97486971D01*
X179970058Y-97867515D01*
X180260954Y-98158919D01*
X180641223Y-98316820D01*
X180702005Y-98316873D01*
X182045000Y-99659868D01*
X182045000Y-103443080D01*
X181946434Y-103295566D01*
X181121127Y-102470259D01*
X181121179Y-102411029D01*
X180963942Y-102030485D01*
X180673046Y-101739081D01*
X180292777Y-101581180D01*
X179881029Y-101580821D01*
X179500485Y-101738058D01*
X179209081Y-102028954D01*
X179051180Y-102409223D01*
X179050821Y-102820971D01*
X179208058Y-103201515D01*
X179498954Y-103492919D01*
X179879223Y-103650820D01*
X179940005Y-103650873D01*
X180521000Y-104231868D01*
X180521000Y-105064132D01*
X179940259Y-105644873D01*
X179881029Y-105644821D01*
X179500485Y-105802058D01*
X179373321Y-105929000D01*
X177582801Y-105929000D01*
X177462730Y-105749302D01*
X176997183Y-105438233D01*
X176448032Y-105329000D01*
X175983968Y-105329000D01*
X175434817Y-105438233D01*
X174969270Y-105749302D01*
X174658201Y-106214849D01*
X174548968Y-106764000D01*
X174633705Y-107190000D01*
X174116164Y-107190000D01*
X174204742Y-106976681D01*
X174205257Y-106385911D01*
X173979656Y-105839914D01*
X173562283Y-105421812D01*
X173534443Y-105410252D01*
X173560086Y-105399656D01*
X173978188Y-104982283D01*
X174204742Y-104436681D01*
X174205257Y-103845911D01*
X173979656Y-103299914D01*
X173562283Y-102881812D01*
X173534443Y-102870252D01*
X173560086Y-102859656D01*
X173624815Y-102795039D01*
X174624096Y-102795039D01*
X174634558Y-102852730D01*
X174895363Y-103350424D01*
X175326774Y-103710428D01*
X175863114Y-103877934D01*
X176089000Y-103725471D01*
X176089000Y-102573000D01*
X176343000Y-102573000D01*
X176343000Y-103725471D01*
X176568886Y-103877934D01*
X177105226Y-103710428D01*
X177536637Y-103350424D01*
X177797442Y-102852730D01*
X177807904Y-102795039D01*
X177685915Y-102573000D01*
X176343000Y-102573000D01*
X176089000Y-102573000D01*
X174746085Y-102573000D01*
X174624096Y-102795039D01*
X173624815Y-102795039D01*
X173978188Y-102442283D01*
X174204742Y-101896681D01*
X174205257Y-101305911D01*
X173979656Y-100759914D01*
X173562283Y-100341812D01*
X173534443Y-100330252D01*
X173560086Y-100319656D01*
X173978188Y-99902283D01*
X174204742Y-99356681D01*
X174205257Y-98765911D01*
X174171234Y-98683568D01*
X174770934Y-98083868D01*
X174969270Y-98380698D01*
X175351356Y-98636000D01*
X174969270Y-98891302D01*
X174658201Y-99356849D01*
X174548968Y-99906000D01*
X174658201Y-100455151D01*
X174969270Y-100920698D01*
X175349209Y-101174565D01*
X175326774Y-101181572D01*
X174895363Y-101541576D01*
X174634558Y-102039270D01*
X174624096Y-102096961D01*
X174746085Y-102319000D01*
X176089000Y-102319000D01*
X176089000Y-102299000D01*
X176343000Y-102299000D01*
X176343000Y-102319000D01*
X177685915Y-102319000D01*
X177807904Y-102096961D01*
X177797442Y-102039270D01*
X177536637Y-101541576D01*
X177105226Y-101181572D01*
X177082791Y-101174565D01*
X177462730Y-100920698D01*
X177773799Y-100455151D01*
X177883032Y-99906000D01*
X177773799Y-99356849D01*
X177462730Y-98891302D01*
X177080644Y-98636000D01*
X177462730Y-98380698D01*
X177773799Y-97915151D01*
X177883032Y-97366000D01*
X177773799Y-96816849D01*
X177462730Y-96351302D01*
X177080644Y-96096000D01*
X177462730Y-95840698D01*
X177773799Y-95375151D01*
X177883032Y-94826000D01*
X177773799Y-94276849D01*
X177462730Y-93811302D01*
X177144998Y-93599000D01*
X177411394Y-93421000D01*
X183425868Y-93421000D01*
X183523000Y-93518132D01*
X183523000Y-93518132D01*
G37*
X183523000Y-93518132D02*
X183523000Y-98802237D01*
X183470434Y-98723566D01*
X181883127Y-97136259D01*
X181883179Y-97077029D01*
X181725942Y-96696485D01*
X181435046Y-96405081D01*
X181054777Y-96247180D01*
X180643029Y-96246821D01*
X180262485Y-96404058D01*
X179971081Y-96694954D01*
X179813180Y-97075223D01*
X179812821Y-97486971D01*
X179970058Y-97867515D01*
X180260954Y-98158919D01*
X180641223Y-98316820D01*
X180702005Y-98316873D01*
X182045000Y-99659868D01*
X182045000Y-103443080D01*
X181946434Y-103295566D01*
X181121127Y-102470259D01*
X181121179Y-102411029D01*
X180963942Y-102030485D01*
X180673046Y-101739081D01*
X180292777Y-101581180D01*
X179881029Y-101580821D01*
X179500485Y-101738058D01*
X179209081Y-102028954D01*
X179051180Y-102409223D01*
X179050821Y-102820971D01*
X179208058Y-103201515D01*
X179498954Y-103492919D01*
X179879223Y-103650820D01*
X179940005Y-103650873D01*
X180521000Y-104231868D01*
X180521000Y-105064132D01*
X179940259Y-105644873D01*
X179881029Y-105644821D01*
X179500485Y-105802058D01*
X179373321Y-105929000D01*
X177582801Y-105929000D01*
X177462730Y-105749302D01*
X176997183Y-105438233D01*
X176448032Y-105329000D01*
X175983968Y-105329000D01*
X175434817Y-105438233D01*
X174969270Y-105749302D01*
X174658201Y-106214849D01*
X174548968Y-106764000D01*
X174633705Y-107190000D01*
X174116164Y-107190000D01*
X174204742Y-106976681D01*
X174205257Y-106385911D01*
X173979656Y-105839914D01*
X173562283Y-105421812D01*
X173534443Y-105410252D01*
X173560086Y-105399656D01*
X173978188Y-104982283D01*
X174204742Y-104436681D01*
X174205257Y-103845911D01*
X173979656Y-103299914D01*
X173562283Y-102881812D01*
X173534443Y-102870252D01*
X173560086Y-102859656D01*
X173624815Y-102795039D01*
X174624096Y-102795039D01*
X174634558Y-102852730D01*
X174895363Y-103350424D01*
X175326774Y-103710428D01*
X175863114Y-103877934D01*
X176089000Y-103725471D01*
X176089000Y-102573000D01*
X176343000Y-102573000D01*
X176343000Y-103725471D01*
X176568886Y-103877934D01*
X177105226Y-103710428D01*
X177536637Y-103350424D01*
X177797442Y-102852730D01*
X177807904Y-102795039D01*
X177685915Y-102573000D01*
X176343000Y-102573000D01*
X176089000Y-102573000D01*
X174746085Y-102573000D01*
X174624096Y-102795039D01*
X173624815Y-102795039D01*
X173978188Y-102442283D01*
X174204742Y-101896681D01*
X174205257Y-101305911D01*
X173979656Y-100759914D01*
X173562283Y-100341812D01*
X173534443Y-100330252D01*
X173560086Y-100319656D01*
X173978188Y-99902283D01*
X174204742Y-99356681D01*
X174205257Y-98765911D01*
X174171234Y-98683568D01*
X174770934Y-98083868D01*
X174969270Y-98380698D01*
X175351356Y-98636000D01*
X174969270Y-98891302D01*
X174658201Y-99356849D01*
X174548968Y-99906000D01*
X174658201Y-100455151D01*
X174969270Y-100920698D01*
X175349209Y-101174565D01*
X175326774Y-101181572D01*
X174895363Y-101541576D01*
X174634558Y-102039270D01*
X174624096Y-102096961D01*
X174746085Y-102319000D01*
X176089000Y-102319000D01*
X176089000Y-102299000D01*
X176343000Y-102299000D01*
X176343000Y-102319000D01*
X177685915Y-102319000D01*
X177807904Y-102096961D01*
X177797442Y-102039270D01*
X177536637Y-101541576D01*
X177105226Y-101181572D01*
X177082791Y-101174565D01*
X177462730Y-100920698D01*
X177773799Y-100455151D01*
X177883032Y-99906000D01*
X177773799Y-99356849D01*
X177462730Y-98891302D01*
X177080644Y-98636000D01*
X177462730Y-98380698D01*
X177773799Y-97915151D01*
X177883032Y-97366000D01*
X177773799Y-96816849D01*
X177462730Y-96351302D01*
X177080644Y-96096000D01*
X177462730Y-95840698D01*
X177773799Y-95375151D01*
X177883032Y-94826000D01*
X177773799Y-94276849D01*
X177462730Y-93811302D01*
X177144998Y-93599000D01*
X177411394Y-93421000D01*
X183425868Y-93421000D01*
X183523000Y-93518132D01*
G36*
X179558873Y-83711741D02*
X179558821Y-83770971D01*
X179716058Y-84151515D01*
X180006954Y-84442919D01*
X180387223Y-84600820D01*
X180798971Y-84601179D01*
X181179515Y-84443942D01*
X181470919Y-84153046D01*
X181628820Y-83772777D01*
X181629179Y-83361029D01*
X181486439Y-83015571D01*
X182507000Y-84036132D01*
X182507000Y-91151000D01*
X177282686Y-91151000D01*
X177082791Y-91017435D01*
X177105226Y-91010428D01*
X177536637Y-90650424D01*
X177797442Y-90152730D01*
X177807904Y-90095039D01*
X177685915Y-89873000D01*
X176343000Y-89873000D01*
X176343000Y-89893000D01*
X176089000Y-89893000D01*
X176089000Y-89873000D01*
X174746085Y-89873000D01*
X174624096Y-90095039D01*
X174634558Y-90152730D01*
X174895363Y-90650424D01*
X175326774Y-91010428D01*
X175349209Y-91017435D01*
X174969270Y-91271302D01*
X174658201Y-91736849D01*
X174548968Y-92286000D01*
X174557521Y-92329000D01*
X174548968Y-92372000D01*
X174658201Y-92921151D01*
X174969270Y-93386698D01*
X175287002Y-93599000D01*
X174969270Y-93811302D01*
X174658201Y-94276849D01*
X174548968Y-94826000D01*
X174558961Y-94876237D01*
X173867568Y-95567630D01*
X173562283Y-95261812D01*
X173534443Y-95250252D01*
X173560086Y-95239656D01*
X173978188Y-94822283D01*
X174204742Y-94276681D01*
X174205257Y-93685911D01*
X173979656Y-93139914D01*
X173562283Y-92721812D01*
X173534443Y-92710252D01*
X173560086Y-92699656D01*
X173978188Y-92282283D01*
X174204742Y-91736681D01*
X174205257Y-91145911D01*
X173979656Y-90599914D01*
X173562283Y-90181812D01*
X173534443Y-90170252D01*
X173560086Y-90159656D01*
X173978188Y-89742283D01*
X174204742Y-89196681D01*
X174205257Y-88605911D01*
X173979656Y-88059914D01*
X173562283Y-87641812D01*
X173514688Y-87622049D01*
X173584353Y-87403958D01*
X172720000Y-86539605D01*
X171855647Y-87403958D01*
X171925181Y-87621640D01*
X171879914Y-87640344D01*
X171461812Y-88057717D01*
X171423000Y-88151187D01*
X171423000Y-87139877D01*
X171424741Y-87144080D01*
X171676042Y-87224353D01*
X172540395Y-86360000D01*
X172526253Y-86345858D01*
X172705858Y-86166253D01*
X172720000Y-86180395D01*
X172734143Y-86166253D01*
X172913748Y-86345858D01*
X172899605Y-86360000D01*
X173763958Y-87224353D01*
X174015259Y-87144080D01*
X174098038Y-86915886D01*
X174164954Y-86982919D01*
X174545223Y-87140820D01*
X174561930Y-87140835D01*
X174548968Y-87206000D01*
X174658201Y-87755151D01*
X174969270Y-88220698D01*
X175349209Y-88474565D01*
X175326774Y-88481572D01*
X174895363Y-88841576D01*
X174634558Y-89339270D01*
X174624096Y-89396961D01*
X174746085Y-89619000D01*
X176089000Y-89619000D01*
X176089000Y-89599000D01*
X176343000Y-89599000D01*
X176343000Y-89619000D01*
X177685915Y-89619000D01*
X177807904Y-89396961D01*
X177797442Y-89339270D01*
X177536637Y-88841576D01*
X177105226Y-88481572D01*
X177082791Y-88474565D01*
X177462730Y-88220698D01*
X177582801Y-88041000D01*
X179558863Y-88041000D01*
X179558821Y-88088971D01*
X179716058Y-88469515D01*
X180006954Y-88760919D01*
X180387223Y-88918820D01*
X180798971Y-88919179D01*
X181179515Y-88761942D01*
X181470919Y-88471046D01*
X181628820Y-88090777D01*
X181629179Y-87679029D01*
X181471942Y-87298485D01*
X181181046Y-87007081D01*
X180800777Y-86849180D01*
X180739995Y-86849127D01*
X180506434Y-86615566D01*
X180504090Y-86614000D01*
X180235541Y-86434561D01*
X179916000Y-86371000D01*
X177582801Y-86371000D01*
X177462730Y-86191302D01*
X177080644Y-85936000D01*
X177462730Y-85680698D01*
X177773799Y-85215151D01*
X177883032Y-84666000D01*
X177773799Y-84116849D01*
X177462730Y-83651302D01*
X177080644Y-83396000D01*
X177462730Y-83140698D01*
X177582801Y-82961000D01*
X178808132Y-82961000D01*
X179558873Y-83711741D01*
X179558873Y-83711741D01*
G37*
X179558873Y-83711741D02*
X179558821Y-83770971D01*
X179716058Y-84151515D01*
X180006954Y-84442919D01*
X180387223Y-84600820D01*
X180798971Y-84601179D01*
X181179515Y-84443942D01*
X181470919Y-84153046D01*
X181628820Y-83772777D01*
X181629179Y-83361029D01*
X181486439Y-83015571D01*
X182507000Y-84036132D01*
X182507000Y-91151000D01*
X177282686Y-91151000D01*
X177082791Y-91017435D01*
X177105226Y-91010428D01*
X177536637Y-90650424D01*
X177797442Y-90152730D01*
X177807904Y-90095039D01*
X177685915Y-89873000D01*
X176343000Y-89873000D01*
X176343000Y-89893000D01*
X176089000Y-89893000D01*
X176089000Y-89873000D01*
X174746085Y-89873000D01*
X174624096Y-90095039D01*
X174634558Y-90152730D01*
X174895363Y-90650424D01*
X175326774Y-91010428D01*
X175349209Y-91017435D01*
X174969270Y-91271302D01*
X174658201Y-91736849D01*
X174548968Y-92286000D01*
X174557521Y-92329000D01*
X174548968Y-92372000D01*
X174658201Y-92921151D01*
X174969270Y-93386698D01*
X175287002Y-93599000D01*
X174969270Y-93811302D01*
X174658201Y-94276849D01*
X174548968Y-94826000D01*
X174558961Y-94876237D01*
X173867568Y-95567630D01*
X173562283Y-95261812D01*
X173534443Y-95250252D01*
X173560086Y-95239656D01*
X173978188Y-94822283D01*
X174204742Y-94276681D01*
X174205257Y-93685911D01*
X173979656Y-93139914D01*
X173562283Y-92721812D01*
X173534443Y-92710252D01*
X173560086Y-92699656D01*
X173978188Y-92282283D01*
X174204742Y-91736681D01*
X174205257Y-91145911D01*
X173979656Y-90599914D01*
X173562283Y-90181812D01*
X173534443Y-90170252D01*
X173560086Y-90159656D01*
X173978188Y-89742283D01*
X174204742Y-89196681D01*
X174205257Y-88605911D01*
X173979656Y-88059914D01*
X173562283Y-87641812D01*
X173514688Y-87622049D01*
X173584353Y-87403958D01*
X172720000Y-86539605D01*
X171855647Y-87403958D01*
X171925181Y-87621640D01*
X171879914Y-87640344D01*
X171461812Y-88057717D01*
X171423000Y-88151187D01*
X171423000Y-87139877D01*
X171424741Y-87144080D01*
X171676042Y-87224353D01*
X172540395Y-86360000D01*
X172526253Y-86345858D01*
X172705858Y-86166253D01*
X172720000Y-86180395D01*
X172734143Y-86166253D01*
X172913748Y-86345858D01*
X172899605Y-86360000D01*
X173763958Y-87224353D01*
X174015259Y-87144080D01*
X174098038Y-86915886D01*
X174164954Y-86982919D01*
X174545223Y-87140820D01*
X174561930Y-87140835D01*
X174548968Y-87206000D01*
X174658201Y-87755151D01*
X174969270Y-88220698D01*
X175349209Y-88474565D01*
X175326774Y-88481572D01*
X174895363Y-88841576D01*
X174634558Y-89339270D01*
X174624096Y-89396961D01*
X174746085Y-89619000D01*
X176089000Y-89619000D01*
X176089000Y-89599000D01*
X176343000Y-89599000D01*
X176343000Y-89619000D01*
X177685915Y-89619000D01*
X177807904Y-89396961D01*
X177797442Y-89339270D01*
X177536637Y-88841576D01*
X177105226Y-88481572D01*
X177082791Y-88474565D01*
X177462730Y-88220698D01*
X177582801Y-88041000D01*
X179558863Y-88041000D01*
X179558821Y-88088971D01*
X179716058Y-88469515D01*
X180006954Y-88760919D01*
X180387223Y-88918820D01*
X180798971Y-88919179D01*
X181179515Y-88761942D01*
X181470919Y-88471046D01*
X181628820Y-88090777D01*
X181629179Y-87679029D01*
X181471942Y-87298485D01*
X181181046Y-87007081D01*
X180800777Y-86849180D01*
X180739995Y-86849127D01*
X180506434Y-86615566D01*
X180504090Y-86614000D01*
X180235541Y-86434561D01*
X179916000Y-86371000D01*
X177582801Y-86371000D01*
X177462730Y-86191302D01*
X177080644Y-85936000D01*
X177462730Y-85680698D01*
X177773799Y-85215151D01*
X177883032Y-84666000D01*
X177773799Y-84116849D01*
X177462730Y-83651302D01*
X177080644Y-83396000D01*
X177462730Y-83140698D01*
X177582801Y-82961000D01*
X178808132Y-82961000D01*
X179558873Y-83711741D01*
G36*
X148084558Y-81297270D02*
X148074096Y-81354961D01*
X148196085Y-81577000D01*
X149539000Y-81577000D01*
X149539000Y-81557000D01*
X149793000Y-81557000D01*
X149793000Y-81577000D01*
X149813000Y-81577000D01*
X149813000Y-81831000D01*
X149793000Y-81831000D01*
X149793000Y-81851000D01*
X149539000Y-81851000D01*
X149539000Y-81831000D01*
X148196085Y-81831000D01*
X148074096Y-82053039D01*
X148084558Y-82110730D01*
X148345363Y-82608424D01*
X148776774Y-82968428D01*
X148799209Y-82975435D01*
X148419270Y-83229302D01*
X148108201Y-83694849D01*
X147998968Y-84244000D01*
X148108201Y-84793151D01*
X148419270Y-85258698D01*
X148801356Y-85514000D01*
X148419270Y-85769302D01*
X148108201Y-86234849D01*
X147998968Y-86784000D01*
X148108201Y-87333151D01*
X148419270Y-87798698D01*
X148801356Y-88054000D01*
X148419270Y-88309302D01*
X148222888Y-88603208D01*
X148129161Y-88621852D01*
X147882599Y-88786599D01*
X147280233Y-89388965D01*
X147115029Y-89388821D01*
X146734485Y-89546058D01*
X146443081Y-89836954D01*
X146285180Y-90217223D01*
X146284821Y-90628971D01*
X146326152Y-90729000D01*
X143713000Y-90729000D01*
X143713000Y-84968132D01*
X147790132Y-80891000D01*
X148297454Y-80891000D01*
X148084558Y-81297270D01*
X148084558Y-81297270D01*
G37*
X148084558Y-81297270D02*
X148074096Y-81354961D01*
X148196085Y-81577000D01*
X149539000Y-81577000D01*
X149539000Y-81557000D01*
X149793000Y-81557000D01*
X149793000Y-81577000D01*
X149813000Y-81577000D01*
X149813000Y-81831000D01*
X149793000Y-81831000D01*
X149793000Y-81851000D01*
X149539000Y-81851000D01*
X149539000Y-81831000D01*
X148196085Y-81831000D01*
X148074096Y-82053039D01*
X148084558Y-82110730D01*
X148345363Y-82608424D01*
X148776774Y-82968428D01*
X148799209Y-82975435D01*
X148419270Y-83229302D01*
X148108201Y-83694849D01*
X147998968Y-84244000D01*
X148108201Y-84793151D01*
X148419270Y-85258698D01*
X148801356Y-85514000D01*
X148419270Y-85769302D01*
X148108201Y-86234849D01*
X147998968Y-86784000D01*
X148108201Y-87333151D01*
X148419270Y-87798698D01*
X148801356Y-88054000D01*
X148419270Y-88309302D01*
X148222888Y-88603208D01*
X148129161Y-88621852D01*
X147882599Y-88786599D01*
X147280233Y-89388965D01*
X147115029Y-89388821D01*
X146734485Y-89546058D01*
X146443081Y-89836954D01*
X146285180Y-90217223D01*
X146284821Y-90628971D01*
X146326152Y-90729000D01*
X143713000Y-90729000D01*
X143713000Y-84968132D01*
X147790132Y-80891000D01*
X148297454Y-80891000D01*
X148084558Y-81297270D01*
M02*
